<svg id="visual" viewBox="0 0 900 600" width="900" height="600" xmlns="http://www.w3.org/2000/svg" xmlns:xlink="http://www.w3.org/1999/xlink" version="1.1"><path d="M0 139L12.5 138C25 137 50 135 75 126C100 117 125 101 150 98C175 95 200 105 225 116C250 127 275 139 300 135C325 131 350 111 375 104C400 97 425 103 450 102C475 101 500 93 525 94C550 95 575 105 600 103C625 101 650 87 675 84C700 81 725 89 750 99C775 109 800 121 825 124C850 127 875 121 887.5 118L900 115L900 0L887.5 0C875 0 850 0 825 0C800 0 775 0 750 0C725 0 700 0 675 0C650 0 625 0 600 0C575 0 550 0 525 0C500 0 475 0 450 0C425 0 400 0 375 0C350 0 325 0 300 0C275 0 250 0 225 0C200 0 175 0 150 0C125 0 100 0 75 0C50 0 25 0 12.5 0L0 0Z" fill="#c49c6d"></path><path d="M0 187L12.5 187C25 187 50 187 75 175C100 163 125 139 150 133C175 127 200 139 225 149C250 159 275 167 300 168C325 169 350 163 375 163C400 163 425 169 450 166C475 163 500 151 525 146C550 141 575 143 600 138C625 133 650 121 675 119C700 117 725 125 750 138C775 151 800 169 825 170C850 171 875 155 887.5 147L900 139L900 113L887.5 116C875 119 850 125 825 122C800 119 775 107 750 97C725 87 700 79 675 82C650 85 625 99 600 101C575 103 550 93 525 92C500 91 475 99 450 100C425 101 400 95 375 102C350 109 325 129 300 133C275 137 250 125 225 114C200 103 175 93 150 96C125 99 100 115 75 124C50 133 25 135 12.5 136L0 137Z" fill="#af7e43"></path><path d="M0 259L12.5 253C25 247 50 235 75 221C100 207 125 191 150 194C175 197 200 219 225 235C250 251 275 261 300 263C325 265 350 259 375 250C400 241 425 229 450 217C475 205 500 193 525 197C550 201 575 221 600 218C625 215 650 189 675 188C700 187 725 211 750 222C775 233 800 231 825 229C850 227 875 225 887.5 224L900 223L900 137L887.5 145C875 153 850 169 825 168C800 167 775 149 750 136C725 123 700 115 675 117C650 119 625 131 600 136C575 141 550 139 525 144C500 149 475 161 450 164C425 167 400 161 375 161C350 161 325 167 300 166C275 165 250 157 225 147C200 137 175 125 150 131C125 137 100 161 75 173C50 185 25 185 12.5 185L0 185Z" fill="#8c6231"></path><path d="M0 301L12.5 294C25 287 50 273 75 258C100 243 125 227 150 238C175 249 200 287 225 303C250 319 275 313 300 307C325 301 350 295 375 290C400 285 425 281 450 276C475 271 500 265 525 271C550 277 575 295 600 285C625 275 650 237 675 238C700 239 725 279 750 296C775 313 800 307 825 304C850 301 875 301 887.5 301L900 301L900 221L887.5 222C875 223 850 225 825 227C800 229 775 231 750 220C725 209 700 185 675 186C650 187 625 213 600 216C575 219 550 199 525 195C500 191 475 203 450 215C425 227 400 239 375 248C350 257 325 263 300 261C275 259 250 249 225 233C200 217 175 195 150 192C125 189 100 205 75 219C50 233 25 245 12.5 251L0 257Z" fill="#7d582c"></path><path d="M0 337L12.5 330C25 323 50 309 75 297C100 285 125 275 150 288C175 301 200 337 225 348C250 359 275 345 300 336C325 327 350 323 375 323C400 323 425 327 450 324C475 321 500 311 525 317C550 323 575 345 600 332C625 319 650 271 675 270C700 269 725 315 750 334C775 353 800 345 825 347C850 349 875 361 887.5 367L900 373L900 299L887.5 299C875 299 850 299 825 302C800 305 775 311 750 294C725 277 700 237 675 236C650 235 625 273 600 283C575 293 550 275 525 269C500 263 475 269 450 274C425 279 400 283 375 288C350 293 325 299 300 305C275 311 250 317 225 301C200 285 175 247 150 236C125 225 100 241 75 256C50 271 25 285 12.5 292L0 299Z" fill="#8c6231"></path><path d="M0 445L12.5 449C25 453 50 461 75 468C100 475 125 481 150 476C175 471 200 455 225 455C250 455 275 471 300 485C325 499 350 511 375 505C400 499 425 475 450 468C475 461 500 471 525 479C550 487 575 493 600 492C625 491 650 483 675 486C700 489 725 503 750 501C775 499 800 481 825 470C850 459 875 455 887.5 453L900 451L900 371L887.5 365C875 359 850 347 825 345C800 343 775 351 750 332C725 313 700 267 675 268C650 269 625 317 600 330C575 343 550 321 525 315C500 309 475 319 450 322C425 325 400 321 375 321C350 321 325 325 300 334C275 343 250 357 225 346C200 335 175 299 150 286C125 273 100 283 75 295C50 307 25 321 12.5 328L0 335Z" fill="#af7e43"></path><path d="M0 601L12.5 601C25 601 50 601 75 601C100 601 125 601 150 601C175 601 200 601 225 601C250 601 275 601 300 601C325 601 350 601 375 601C400 601 425 601 450 601C475 601 500 601 525 601C550 601 575 601 600 601C625 601 650 601 675 601C700 601 725 601 750 601C775 601 800 601 825 601C850 601 875 601 887.5 601L900 601L900 449L887.5 451C875 453 850 457 825 468C800 479 775 497 750 499C725 501 700 487 675 484C650 481 625 489 600 490C575 491 550 485 525 477C500 469 475 459 450 466C425 473 400 497 375 503C350 509 325 497 300 483C275 469 250 453 225 453C200 453 175 469 150 474C125 479 100 473 75 466C50 459 25 451 12.5 447L0 443Z" fill="#c49c6d"></path></svg>