<svg xmlns="http://www.w3.org/2000/svg" viewBox="0 0 175 173"><defs><style>.cls-1{fill:#1d1d1b;}</style></defs><g id="Calque_2" data-name="Calque 2"><g id="Calque_1-2" data-name="Calque 1"><path class="cls-1" d="M159.16,128.6l0,.08c3.83,6.94-2.11,15.27-9.67,13.58l-1.41-.32A79.35,79.35,0,0,1,118,128.32a85.74,85.74,0,0,1,3.51,35.57l0,.28a8.88,8.88,0,0,1-15.54,5.19l-1.14-1.31a85.92,85.92,0,0,1-16.69-29.17,81.81,81.81,0,0,1-17.24,30.84l-.23.26a8.88,8.88,0,0,1-15.5-5.3l-.16-1.63a93.78,93.78,0,0,1,3-33.89,75.87,75.87,0,0,1-31.24,14.45h0C19.08,145.32,13.13,137,17,130l.79-1.42A83.82,83.82,0,0,1,39,103.32a80.94,80.94,0,0,1-33.4-7.5l-.36-.17a9.35,9.35,0,0,1,0-16.84L7,78a77.11,77.11,0,0,1,32.32-7.51A78.58,78.58,0,0,1,15.87,44.14h0C12,37.16,18,28.76,25.6,30.45l1.59.35A82.17,82.17,0,0,1,57.08,44.14a85,85,0,0,1-3.5-35.28h0A9,9,0,0,1,69.32,3.59l1,1.1a86.59,86.59,0,0,1,17,29.17A81.68,81.68,0,0,1,104.49,3h0A8.85,8.85,0,0,1,120,8.29l.16,1.68a86.3,86.3,0,0,1-3,33.62,78.76,78.76,0,0,1,31.51-14.45L155,27.8c5.17-1.09,9.17,4.63,6.52,9.34l-3.93,7A80.71,80.71,0,0,1,135.46,69.7a80.23,80.23,0,0,1,34.21,7.5h0A9.34,9.34,0,0,1,169.74,94l-1.42.67a77.37,77.37,0,0,1-32.59,7.5A78.45,78.45,0,0,1,159.16,128.6Z"/></g></g></svg>