<svg xmlns="http://www.w3.org/2000/svg" viewBox="0 0 175 175"><defs><style>.cls-1{fill:#1d1d1b;}</style></defs><g id="Calque_2" data-name="Calque 2"><g id="Calque_1-2" data-name="Calque 1"><path class="cls-1" d="M97.66,59.37,126.44,0l-23,67a7.23,7.23,0,0,0,8.22,9.55L175,62.46,109.52,86a7.37,7.37,0,0,0-2.13,12.55l50.28,41.82L98.8,102.62a7.11,7.11,0,0,0-10.88,6.14L87.5,175l-8.06-70.59A7.08,7.08,0,0,0,68,99.52L17.33,140.34,66,90a7.36,7.36,0,0,0-3.4-12.24L0,62.46l68.6,7.79a7.26,7.26,0,0,0,7.23-10.33L48.56,0,85.27,60A7,7,0,0,0,97.66,59.37Z"/></g></g></svg>