<svg xmlns="http://www.w3.org/2000/svg" viewBox="0 0 524.99 175"><defs><style>.cls-1{fill:#1d1d1b;}</style></defs><g id="Calque_2" data-name="Calque 2"><g id="Calque_1-2" data-name="Calque 1"><path class="cls-1" d="M525,131.25a43.75,43.75,0,0,1-87.5,0c0-.19,0-.38,0-.57A43.74,43.74,0,0,0,393.75,87.5h0A43.74,43.74,0,0,0,350,131.24h0a43.75,43.75,0,1,1-87.49,0h0A43.74,43.74,0,0,0,218.76,87.5h0A43.74,43.74,0,0,0,175,131.24h0a43.75,43.75,0,0,1-87.5,0h0A43.74,43.74,0,0,0,43.76,87.5h0A43.75,43.75,0,1,1,87.5,43.75h0A43.74,43.74,0,0,0,131.25,87.5h0A43.74,43.74,0,0,0,175,43.76h0a43.75,43.75,0,0,1,87.5,0h0A43.74,43.74,0,0,0,306.24,87.5h0A43.74,43.74,0,0,0,350,44.32c0-.19,0-.38,0-.57a43.75,43.75,0,0,1,87.5,0h0A43.74,43.74,0,0,0,481.24,87.5,43.75,43.75,0,0,1,525,131.25Z"/></g></g></svg>