<svg xmlns="http://www.w3.org/2000/svg" viewBox="0 0 175 175"><defs><style>.cls-1{fill:#1d1d1b;}</style></defs><g id="Calque_2" data-name="Calque 2"><g id="Calque_1-2" data-name="Calque 1"><polygon class="cls-1" points="87.5 87.5 90.48 131.25 93.45 175 87.5 175 81.55 175 84.52 131.25 87.5 87.5"/><polygon class="cls-1" points="87.5 87.5 111.95 123.9 136.4 160.3 131.25 163.28 126.1 166.25 106.8 126.88 87.5 87.5"/><polygon class="cls-1" points="87.5 87.5 126.88 106.8 166.25 126.1 163.28 131.25 160.3 136.4 123.9 111.95 87.5 87.5"/><polygon class="cls-1" points="87.5 87.5 131.25 84.52 175 81.55 175 87.5 175 93.45 131.25 90.48 87.5 87.5"/><polygon class="cls-1" points="87.5 87.5 123.9 63.05 160.3 38.6 163.28 43.75 166.25 48.9 126.88 68.2 87.5 87.5"/><polygon class="cls-1" points="87.5 87.5 106.8 48.12 126.1 8.75 131.25 11.72 136.4 14.7 111.95 51.1 87.5 87.5"/><polygon class="cls-1" points="87.5 87.5 84.52 43.75 81.55 0 87.5 0 93.45 0 90.48 43.75 87.5 87.5"/><polygon class="cls-1" points="87.5 87.5 63.05 51.1 38.6 14.7 43.75 11.72 48.9 8.75 68.2 48.12 87.5 87.5"/><polygon class="cls-1" points="87.5 87.5 48.12 68.2 8.75 48.9 11.72 43.75 14.7 38.6 51.1 63.05 87.5 87.5"/><polygon class="cls-1" points="87.5 87.5 43.75 90.48 0 93.45 0 87.5 0 81.55 43.75 84.52 87.5 87.5"/><polygon class="cls-1" points="87.5 87.5 51.1 111.95 14.7 136.4 11.72 131.25 8.75 126.1 48.12 106.8 87.5 87.5"/><polygon class="cls-1" points="87.5 87.5 68.2 126.88 48.9 166.25 43.75 163.28 38.6 160.3 63.05 123.9 87.5 87.5"/></g></g></svg>