<svg xmlns="http://www.w3.org/2000/svg" viewBox="0 0 175 170"><defs><style>.cls-1{fill:#1d1d1b;fill-rule:evenodd;}</style></defs><g id="Calque_2" data-name="Calque 2"><g id="Calque_1-2" data-name="Calque 1"><path class="cls-1" d="M114.59,120.36c2.58-6.11,20.36,9.46,60.41,46.31-27.69-23.38-45.95-37.53-59.77-42.6,2,9.76,7,23.65,14.4,42.6-9.06-21.82-14.63-36.09-15.33-42.92-21.7-7.44-32.47,8.19-52.73,46.25,15.33-48.26,19-65-1.26-62,1.11,4.91-14.53,22.88-47.35,58.71,25.52-28.67,40.19-46.45,43.57-58-9.24,2.1-22.41,7.23-40.33,14.67C37.45,113.17,51.11,107.09,57,106.59,59.75,91.76,41.16,88,0,83.33c55.73-3.49,73.08-6.54,68.66-32.51C61.87,48.34,44.46,31.58,13,0,37.08,22,54,36.43,67,43.45,64.64,34.63,60.53,23.67,55.09,10q9.06,17.82,14.56,28.48c-2.74-8-7.75-19.72-14.56-35.15C65,24.63,71.76,39.18,75.27,47.09c20.15,6.5,31.07-9.47,51.12-47.09-15.49,48.82-19.45,66.05.83,62.85C122.8,59.2,138.07,40.2,175,0c-23.29,28.68-37.69,47.66-43.27,61.94,9.25-2.32,22.33-7.63,40-15.27-20.24,9.9-33.92,15.92-40.58,16.76-8,22.46,6.74,33.22,43.82,53.24C128.6,102.18,111.74,98.6,114.59,120.36Z"/></g></g></svg>