<svg xmlns="http://www.w3.org/2000/svg" viewBox="0 0 175 175"><defs><style>.cls-1{fill:#1d1d1b;}</style></defs><g id="Calque_2" data-name="Calque 2"><g id="Calque_1-2" data-name="Calque 1"><polygon class="cls-1" points="87.5 87.5 88.99 131.25 90.48 175 87.5 175 84.52 175 86.01 131.25 87.5 87.5"/><polygon class="cls-1" points="87.5 87.5 96.56 130.33 105.63 173.15 102.69 173.67 99.76 174.19 93.63 130.84 87.5 87.5"/><polygon class="cls-1" points="87.5 87.5 103.86 128.1 120.22 168.71 117.43 169.72 114.63 170.74 101.06 129.12 87.5 87.5"/><polygon class="cls-1" points="87.5 87.5 110.66 124.64 133.83 161.79 131.25 163.28 128.67 164.76 108.09 126.13 87.5 87.5"/><polygon class="cls-1" points="87.5 87.5 116.76 120.06 146.02 152.62 143.74 154.53 141.47 156.44 114.48 121.97 87.5 87.5"/><polygon class="cls-1" points="87.5 87.5 121.97 114.48 156.44 141.47 154.53 143.74 152.62 146.02 120.06 116.76 87.5 87.5"/><polygon class="cls-1" points="87.5 87.5 126.13 108.09 164.76 128.67 163.28 131.25 161.79 133.83 124.64 110.66 87.5 87.5"/><polygon class="cls-1" points="87.5 87.5 129.12 101.06 170.74 114.63 169.72 117.43 168.71 120.22 128.1 103.86 87.5 87.5"/><polygon class="cls-1" points="87.5 87.5 130.84 93.63 174.19 99.76 173.67 102.69 173.15 105.63 130.33 96.56 87.5 87.5"/><polygon class="cls-1" points="87.5 87.5 131.25 86.01 175 84.52 175 87.5 175 90.48 131.25 88.99 87.5 87.5"/><polygon class="cls-1" points="87.5 87.5 130.33 78.44 173.15 69.38 173.67 72.31 174.19 75.24 130.84 81.37 87.5 87.5"/><polygon class="cls-1" points="87.5 87.5 128.1 71.14 168.71 54.78 169.72 57.57 170.74 60.37 129.12 73.94 87.5 87.5"/><polygon class="cls-1" points="87.5 87.5 124.64 64.34 161.79 41.17 163.28 43.75 164.76 46.33 126.13 66.91 87.5 87.5"/><polygon class="cls-1" points="87.5 87.5 120.06 58.24 152.62 28.98 154.53 31.26 156.44 33.53 121.97 60.52 87.5 87.5"/><polygon class="cls-1" points="87.5 87.5 114.48 53.03 141.47 18.56 143.74 20.47 146.02 22.38 116.76 54.94 87.5 87.5"/><polygon class="cls-1" points="87.5 87.5 108.09 48.87 128.67 10.23 131.25 11.72 133.83 13.21 110.66 50.35 87.5 87.5"/><polygon class="cls-1" points="87.5 87.5 101.06 45.88 114.63 4.26 117.43 5.28 120.22 6.29 103.86 46.9 87.5 87.5"/><polygon class="cls-1" points="87.5 87.5 93.63 44.16 99.76 0.81 102.69 1.33 105.63 1.85 96.56 44.67 87.5 87.5"/><polygon class="cls-1" points="87.5 87.5 86.01 43.75 84.52 0 87.5 0 90.48 0 88.99 43.75 87.5 87.5"/><polygon class="cls-1" points="87.5 87.5 78.44 44.67 69.38 1.85 72.31 1.33 75.24 0.81 81.37 44.16 87.5 87.5"/><polygon class="cls-1" points="87.5 87.5 71.14 46.9 54.78 6.29 57.57 5.28 60.37 4.26 73.94 45.88 87.5 87.5"/><polygon class="cls-1" points="87.5 87.5 64.34 50.35 41.17 13.21 43.75 11.72 46.33 10.23 66.91 48.87 87.5 87.5"/><polygon class="cls-1" points="87.5 87.5 58.24 54.94 28.98 22.38 31.26 20.47 33.53 18.56 60.52 53.03 87.5 87.5"/><polygon class="cls-1" points="87.5 87.5 53.03 60.52 18.56 33.53 20.47 31.26 22.38 28.98 54.94 58.24 87.5 87.5"/><polygon class="cls-1" points="87.5 87.5 48.87 66.91 10.23 46.33 11.72 43.75 13.21 41.17 50.35 64.34 87.5 87.5"/><polygon class="cls-1" points="87.5 87.5 45.88 73.94 4.26 60.37 5.28 57.57 6.29 54.78 46.9 71.14 87.5 87.5"/><polygon class="cls-1" points="87.5 87.5 44.16 81.37 0.81 75.24 1.33 72.31 1.85 69.38 44.67 78.44 87.5 87.5"/><polygon class="cls-1" points="87.5 87.5 43.75 88.99 0 90.48 0 87.5 0 84.52 43.75 86.01 87.5 87.5"/><polygon class="cls-1" points="87.5 87.5 44.67 96.56 1.85 105.63 1.33 102.69 0.81 99.76 44.16 93.63 87.5 87.5"/><polygon class="cls-1" points="87.5 87.5 46.9 103.86 6.29 120.22 5.28 117.43 4.26 114.63 45.88 101.06 87.5 87.5"/><polygon class="cls-1" points="87.5 87.5 50.35 110.66 13.21 133.83 11.72 131.25 10.23 128.67 48.87 108.09 87.5 87.5"/><polygon class="cls-1" points="87.5 87.5 54.94 116.76 22.38 146.02 20.47 143.74 18.56 141.47 53.03 114.48 87.5 87.5"/><polygon class="cls-1" points="87.5 87.5 60.52 121.97 33.53 156.44 31.26 154.53 28.98 152.62 58.24 120.06 87.5 87.5"/><polygon class="cls-1" points="87.5 87.5 66.91 126.13 46.33 164.76 43.75 163.28 41.17 161.79 64.34 124.64 87.5 87.5"/><polygon class="cls-1" points="87.5 87.5 73.94 129.12 60.37 170.74 57.57 169.72 54.78 168.71 71.14 128.1 87.5 87.5"/><polygon class="cls-1" points="87.5 87.5 81.37 130.84 75.24 174.19 72.31 173.67 69.38 173.15 78.44 130.33 87.5 87.5"/></g></g></svg>