<svg xmlns="http://www.w3.org/2000/svg" viewBox="0 0 175 175"><defs><style>.cls-1{fill:#1d1d1b;}</style></defs><g id="Calque_2" data-name="Calque 2"><g id="Calque_1-2" data-name="Calque 1"><path class="cls-1" d="M5.52,91.39A59.07,59.07,0,0,1,0,74.85a1,1,0,0,1,1.8-.6c.55,1.1,1.14,2.19,1.8,3.29a58.42,58.42,0,0,0,41,28.1,37.32,37.32,0,0,1,1.06-36.26.94.94,0,0,1,1.74.7.78.78,0,0,1,0,.21A36.65,36.65,0,0,0,58,106.16,54.65,54.65,0,0,0,65.45,105a60.25,60.25,0,0,0,23-10.32,1,1,0,0,1,1.46,1.07L82.8,117.66a1,1,0,0,1-.51.58A58.27,58.27,0,0,1,5.52,91.39Z"/><path class="cls-1" d="M63.1,174.26a57,57,0,0,1-17.28.16,1,1,0,0,1,0-1.9c1.18-.2,2.41-.43,3.64-.72a58.53,58.53,0,0,0,39.17-30.71A36.09,36.09,0,0,1,61,134.59a37.25,37.25,0,0,1-6.2-5.72A1,1,0,0,1,56,127.4l.19.13a35.81,35.81,0,0,0,37.06.91,57.8,57.8,0,0,0,1.23-7.52A61.64,61.64,0,0,0,91.8,95.71a1,1,0,0,1,1.47-1.06l18.43,13.53a1,1,0,0,1,.41.68C115.83,140.29,94.32,169.28,63.1,174.26Z"/><path class="cls-1" d="M64.23,92.53a59.48,59.48,0,0,1,1.57-82A58.07,58.07,0,0,1,79.67.12a1,1,0,0,1,1.12,1.53c-.83.89-1.69,1.8-2.51,2.77A59.31,59.31,0,0,0,64.47,52.47,36.18,36.18,0,0,1,90.63,41.34a35.76,35.76,0,0,1,8.33,1,1,1,0,0,1-.1,1.9h-.25a36.12,36.12,0,0,0-30.5,21.25,56.72,56.72,0,0,0,3.38,6.81A60.88,60.88,0,0,0,88.3,91.1a1,1,0,0,1-.57,1.74H64.94A1.05,1.05,0,0,1,64.23,92.53Z"/><path class="cls-1" d="M159,144.58a60.37,60.37,0,0,1-5.2,16.67,1,1,0,0,1-1.8-.58q.27-1.83.45-3.72a59.4,59.4,0,0,0-16.82-47.12,36.74,36.74,0,0,1-14.68,24.55,35.1,35.1,0,0,1-7.3,4.17,1,1,0,0,1-1-1.59l.17-.16a36.74,36.74,0,0,0,12.33-35.29A57.64,57.64,0,0,0,118.39,98a60.37,60.37,0,0,0-24.57-5.25A1,1,0,0,1,93.27,91L111.7,77.49a1,1,0,0,1,.78-.16C143.25,83.46,163.91,113.07,159,144.58Z"/><path class="cls-1" d="M173.6,55.07c-1.08-.56-2.21-1.07-3.37-1.59a58,58,0,0,0-49.57,1.61,36.87,36.87,0,0,1,20.25,30,1,1,0,0,1-1.82.46.76.76,0,0,0-.08-.21,36.13,36.13,0,0,0-29.45-22.71,52.76,52.76,0,0,0-5.36,5.32,61.39,61.39,0,0,0-12.54,22,.94.94,0,0,1-1.8,0L82.8,68a1,1,0,0,1,.08-.79A58.22,58.22,0,0,1,160.61,43.4a58.81,58.81,0,0,1,14.1,10.12A1,1,0,0,1,173.6,55.07Z"/></g></g></svg>