<svg xmlns="http://www.w3.org/2000/svg" viewBox="0 0 198.95 398.02"><defs><style>.cls-1{fill:#1d1d1b;}</style></defs><g id="Calque_2" data-name="Calque 2"><g id="Calque_1-2" data-name="Calque 1"><path class="cls-1" d="M71.1,382.05a31.46,31.46,0,0,1-2.19-4.29A33.91,33.91,0,0,0,71.1,382.05Z"/><path class="cls-1" d="M73.87,386a34,34,0,0,1-2.77-3.9A38.19,38.19,0,0,0,73.87,386Z"/><path class="cls-1" d="M165.82,199a33.17,33.17,0,0,0,0-66.34,33.17,33.17,0,1,1,0-66.34,33.17,33.17,0,1,0-33.17-33.18A33.18,33.18,0,0,1,99.49,66.34h0A33.19,33.19,0,0,1,66.29,33.16,33.15,33.15,0,1,0,33.13,66.34a33.17,33.17,0,0,1,0,66.34,33.17,33.17,0,0,0,0,66.34,33.17,33.17,0,0,1,0,66.34,33.16,33.16,0,0,0,0,66.32,33.13,33.13,0,0,1,33.16,33.18,32.9,32.9,0,0,0,2,11.4q.28.76.6,1.5a33.91,33.91,0,0,0,2.19,4.29,38.19,38.19,0,0,0,2.77,3.9,33.18,33.18,0,0,0,51.2,0,39.81,39.81,0,0,0,2.77-3.9,33.91,33.91,0,0,0,2.19-4.29q.33-.74.6-1.5a32.9,32.9,0,0,0,2-11.4,33.14,33.14,0,0,1,33.17-33.18,33.16,33.16,0,0,0,0-66.32,33.17,33.17,0,1,1,0-66.34ZM99.48,331.68h0a33.16,33.16,0,1,1,0-66.32h0a33.16,33.16,0,1,1,0,66.32Zm0-132.66h0a33.17,33.17,0,1,1,0-66.34h0a33.17,33.17,0,1,1,0,66.34Z"/><path class="cls-1" d="M127.84,382.05a34,34,0,0,1-2.77,3.9A39.81,39.81,0,0,0,127.84,382.05Z"/><path class="cls-1" d="M130,377.76a31.46,31.46,0,0,1-2.19,4.29A33.91,33.91,0,0,0,130,377.76Z"/></g></g></svg>