<svg xmlns="http://www.w3.org/2000/svg" viewBox="0 0 175 175"><g id="Calque_2" data-name="Calque 2"><g id="Calque_1-2" data-name="Calque 1"><path d="M108.63,130.2a4.49,4.49,0,0,0,2.82,2.12l44.34,11.92L119.3,128.58a4.84,4.84,0,0,1-2.17-1.94l-2.52-4.36a7.25,7.25,0,0,1,9.91-9.9l2.63,1.52a4.4,4.4,0,0,0,3.46.46L175,102.49l-39.44,4.66a4.65,4.65,0,0,1-2.82-.55l-4.4-2.54A7.25,7.25,0,0,1,132,90.53H132a11.84,11.84,0,0,0,8.37-3.47l30.34-30.34L139,80.5a4.53,4.53,0,0,1-2.77.93h-5a7.26,7.26,0,0,1-3.62-13.54l2.64-1.52a4.57,4.57,0,0,0,2.12-2.77l11.87-44.39L128.54,55.7a4.62,4.62,0,0,1-1.9,2.17l-4.36,2.52a7.25,7.25,0,0,1-9.9-9.91l1.52-2.63a4.59,4.59,0,0,0,.46-3.47L102.49,0l4.66,39.44a4.29,4.29,0,0,1-.6,2.82l-2.49,4.32A7.26,7.26,0,0,1,90.52,43h0a11.82,11.82,0,0,0-3.46-8.36L56.72,4.25,80.5,36.07a4.77,4.77,0,0,1,.88,2.73v4.94a7.25,7.25,0,0,1-13.53,3.62L66.37,44.8a4.88,4.88,0,0,0-2.77-2.12L19.21,30.81,55.7,46.46a4.62,4.62,0,0,1,2.17,1.9l2.52,4.36a7.26,7.26,0,0,1-9.91,9.91L47.85,61.1a4.83,4.83,0,0,0-3.47-.46L0,72.56l39.44-4.71a4.69,4.69,0,0,1,2.82.6l4.32,2.49A7.25,7.25,0,0,1,43,84.47H40a4.75,4.75,0,0,0-3.23,1.34L4.25,118.28,36,94.54a4.63,4.63,0,0,1,2.77-.92h5a7.25,7.25,0,0,1,3.63,13.53l-2.64,1.53a4.44,4.44,0,0,0-2.12,2.77L30.81,155.79,46.46,119.3a4.52,4.52,0,0,1,1.9-2.13l4.36-2.51a7.25,7.25,0,0,1,9.9,9.91L61.1,127.2a4.51,4.51,0,0,0-.46,3.46L72.51,175l-4.66-39.4a4.42,4.42,0,0,1,.6-2.86l2.49-4.32a7.25,7.25,0,0,1,13.53,3.63v3a4.41,4.41,0,0,0,1.34,3.23l32.47,32.47L94.5,139a4.72,4.72,0,0,1-.88-2.72v-5a7.25,7.25,0,0,1,13.53-3.62ZM87.75,87.34a.43.43,0,0,1-.18-.09h0a.3.3,0,0,1-.18,0s0,0-.09,0a.07.07,0,0,0,0-.09c0-.09.09-.18,0-.28s.09.14.14.19.19-.14.19-.19a.62.62,0,0,0,.09.23.31.31,0,0,0,.18-.09,1.16,1.16,0,0,0-.09.19.07.07,0,0,1-.09,0S87.71,87.29,87.75,87.34Zm-.46.37s0-.09-.09,0v.09c-.09,0-.19-.09-.28,0s.14-.09.19-.14.09-.09.09-.14h0v0A.47.47,0,0,1,87.29,87.71Zm.46.09h-.13c-.05,0,0,0,0,0s.09-.13.13-.18a.16.16,0,0,1,0-.14c0-.05,0-.05,0-.05s0,.1.09.05a.24.24,0,0,0,.23.19.44.44,0,0,0-.23.09.18.18,0,0,0,.09.18S87.85,87.85,87.75,87.8Z"/></g></g></svg>