<svg xmlns="http://www.w3.org/2000/svg" viewBox="0 0 175 168"><defs><style>.cls-1{fill:#1d1d1b;}</style></defs><g id="Calque_2" data-name="Calque 2"><g id="Calque_1-2" data-name="Calque 1"><path class="cls-1" d="M113.84,96.25l-8-.22,6.63,4.52,19.1,13,7.83,5.37c14.55,9.91,16.58,31.22,3.18,42.66-.57.49-1.18,1-1.81,1.42s-1.26.87-1.91,1.28C123.76,173.4,104,164.9,99,148.07L96.31,139l-6.52-22-2.28-7.69-2.27,7.69L78.69,139,76,148.07c-5,16.83-24.74,25.33-39.83,16.21-.63-.41-1.29-.82-1.92-1.28s-1.23-.93-1.81-1.42c-13.4-11.44-11.37-32.77,3.21-42.69l7.86-5.34,19.07-13L69.19,96l-8.06.22L38,96.88l-9.51.24C10.86,97.61-3.36,81.54.7,64.46c.19-.74.38-1.47.63-2.21s.52-1.44.79-2.12C8.92,43.92,30,39.23,44,49.94l7.54,5.77,18.33,14,6.35,4.88-2.68-7.55L65.73,45.39l-3.17-8.91C56.64,19.94,67.6,1.53,85.21.11A21.49,21.49,0,0,1,87.51,0a22.32,22.32,0,0,1,2.31.11C107.4,1.53,118.36,20,112.44,36.51l-3.17,8.9-7.76,21.66-2.68,7.52,6.35-4.85,18.36-14,7.53-5.77c14-10.68,35-6,41.81,10.19.27.68.55,1.41.79,2.15s.44,1.47.63,2.2c4.06,17.09-10.19,33.13-27.83,32.67L137,96.88Z"/></g></g></svg>