<svg xmlns="http://www.w3.org/2000/svg" viewBox="0 0 175.96 269.39"><defs><style>.cls-1{fill:#1d1d1b;}</style></defs><g id="Calque_2" data-name="Calque 2"><g id="Calque_1-2" data-name="Calque 1"><path class="cls-1" d="M176,17.7v41a17.76,17.76,0,0,1-17.7,17.7h0a32.11,32.11,0,0,0-32.11,32.1v5.64a17.75,17.75,0,0,1-17.7,17.7h-41A17.62,17.62,0,0,1,49.8,114.27v-5.73a32.1,32.1,0,0,0-32.1-32.1h0A17.76,17.76,0,0,1,0,58.74v-41A17.75,17.75,0,0,1,17.7,0h41a17.76,17.76,0,0,1,17.7,17.7V46.59a11.06,11.06,0,0,0,4.25,8.85,11.22,11.22,0,0,0,14.58,0,11.06,11.06,0,0,0,4.25-8.85V17.7A17.75,17.75,0,0,1,117.22,0h41A17.76,17.76,0,0,1,176,17.7Z"/><path class="cls-1" d="M0,251.69v-41A17.75,17.75,0,0,1,17.7,193h0a32.1,32.1,0,0,0,32.1-32.1v-5.64a17.75,17.75,0,0,1,17.7-17.7h41a17.6,17.6,0,0,1,17.61,17.61v5.73A32.11,32.11,0,0,0,158.26,193h0a17.75,17.75,0,0,1,17.7,17.7v41a17.76,17.76,0,0,1-17.7,17.7h-41a17.75,17.75,0,0,1-17.7-17.7v-28.9a11.46,11.46,0,0,0-18.83-8.85,11.09,11.09,0,0,0-4.25,8.85v28.9a17.76,17.76,0,0,1-17.7,17.7h-41A17.76,17.76,0,0,1,0,251.69Z"/></g></g></svg>