<svg xmlns="http://www.w3.org/2000/svg" viewBox="0 0 490.38 160.48"><defs><style>.cls-1{fill:#1d1d1b;}</style></defs><g id="Calque_2" data-name="Calque 2"><g id="Calque_1-2" data-name="Calque 1"><path d="M181.23,1c99.38,0,180.23,35.55,180.23,79.24s-80.85,79.24-180.23,79.24S1,123.93,1,80.24,81.85,1,181.23,1m0-1C81.14,0,0,35.92,0,80.24s81.14,80.24,181.23,80.24,181.23-35.92,181.23-80.24S281.32,0,181.23,0Z"/><path d="M181.23,1c99.38,0,180.23,35.55,180.23,79.24s-80.85,79.24-180.23,79.24S1,123.93,1,80.24,81.85,1,181.23,1m0-1C81.14,0,0,35.92,0,80.24s81.14,80.24,181.23,80.24,181.23-35.92,181.23-80.24S281.32,0,181.23,0Z"/><path d="M309.15,1c99.38,0,180.23,35.55,180.23,79.24s-80.85,79.24-180.23,79.24S128.92,123.93,128.92,80.24,209.77,1,309.15,1m0-1C209.06,0,127.92,35.92,127.92,80.24s81.14,80.24,181.23,80.24,181.23-35.92,181.23-80.24S409.24,0,309.15,0Z"/><path d="M181.23,1c99.38,0,180.23,35.55,180.23,79.24s-80.85,79.24-180.23,79.24S1,123.93,1,80.24,81.85,1,181.23,1m0-1C81.14,0,0,35.92,0,80.24s81.14,80.24,181.23,80.24,181.23-35.92,181.23-80.24S281.32,0,181.23,0Z"/><path d="M181.23,1c99.38,0,180.23,35.55,180.23,79.24s-80.85,79.24-180.23,79.24S1,123.93,1,80.24,81.85,1,181.23,1m0-1C81.14,0,0,35.92,0,80.24s81.14,80.24,181.23,80.24,181.23-35.92,181.23-80.24S281.32,0,181.23,0Z"/><path d="M309.15,1c99.38,0,180.23,35.55,180.23,79.24s-80.85,79.24-180.23,79.24S128.92,123.93,128.92,80.24,209.77,1,309.15,1m0-1C209.06,0,127.92,35.92,127.92,80.24s81.14,80.24,181.23,80.24,181.23-35.92,181.23-80.24S409.24,0,309.15,0Z"/><circle class="cls-1" cx="242.15" cy="82.8" r="45.12"/></g></g></svg>