<svg xmlns="http://www.w3.org/2000/svg" viewBox="0 0 276.3 151.32"><defs><style>.cls-1{fill:#1d1d1b;}</style></defs><g id="Calque_2" data-name="Calque 2"><g id="Calque_1-2" data-name="Calque 1"><circle class="cls-1" cx="138.15" cy="128.11" r="2.21"/><circle class="cls-1" cx="132.71" cy="128.82" r="2.21"/><circle class="cls-1" cx="127.65" cy="130.92" r="2.21"/><circle class="cls-1" cx="123.3" cy="134.26" r="2.21"/><circle class="cls-1" cx="119.96" cy="138.61" r="2.21"/><circle class="cls-1" cx="117.86" cy="143.67" r="2.21"/><circle class="cls-1" cx="117.14" cy="149.11" r="2.21"/><circle class="cls-1" cx="159.15" cy="149.11" r="2.21"/><circle class="cls-1" cx="158.44" cy="143.67" r="2.21"/><circle class="cls-1" cx="156.34" cy="138.61" r="2.21"/><circle class="cls-1" cx="153" cy="134.26" r="2.21"/><circle class="cls-1" cx="148.65" cy="130.92" r="2.21"/><circle class="cls-1" cx="143.58" cy="128.82" r="2.21"/><circle class="cls-1" cx="138.15" cy="118.15" r="3.16"/><circle class="cls-1" cx="130.38" cy="119.18" r="3.16"/><circle class="cls-1" cx="123.15" cy="122.17" r="3.16"/><circle class="cls-1" cx="116.93" cy="126.94" r="3.16"/><circle class="cls-1" cx="112.16" cy="133.16" r="3.16"/><circle class="cls-1" cx="109.16" cy="140.39" r="3.16"/><circle class="cls-1" cx="108.14" cy="148.16" r="3.16"/><circle class="cls-1" cx="168.15" cy="148.16" r="3.16"/><circle class="cls-1" cx="167.13" cy="140.39" r="3.16"/><circle class="cls-1" cx="164.13" cy="133.16" r="3.16"/><circle class="cls-1" cx="159.37" cy="126.94" r="3.16"/><circle class="cls-1" cx="153.15" cy="122.17" r="3.16"/><circle class="cls-1" cx="145.91" cy="119.18" r="3.16"/><circle class="cls-1" cx="138.15" cy="103.94" r="4.52"/><circle class="cls-1" cx="127.05" cy="105.4" r="4.52"/><circle class="cls-1" cx="116.72" cy="109.68" r="4.52"/><circle class="cls-1" cx="107.84" cy="116.49" r="4.52"/><circle class="cls-1" cx="101.03" cy="125.37" r="4.52"/><circle class="cls-1" cx="96.74" cy="135.71" r="4.52"/><circle class="cls-1" cx="95.28" cy="146.8" r="4.52"/><circle class="cls-1" cx="181.01" cy="146.8" r="4.52"/><circle class="cls-1" cx="179.55" cy="135.71" r="4.52"/><circle class="cls-1" cx="175.27" cy="125.37" r="4.52"/><circle class="cls-1" cx="168.46" cy="116.49" r="4.52"/><circle class="cls-1" cx="159.58" cy="109.68" r="4.52"/><circle class="cls-1" cx="149.24" cy="105.4" r="4.52"/><circle class="cls-1" cx="138.15" cy="83.63" r="6.46"/><circle class="cls-1" cx="122.3" cy="85.72" r="6.46"/><circle class="cls-1" cx="107.53" cy="91.84" r="6.46"/><circle class="cls-1" cx="94.85" cy="101.57" r="6.46"/><circle class="cls-1" cx="85.12" cy="114.25" r="6.46"/><circle class="cls-1" cx="79" cy="129.02" r="6.46"/><circle class="cls-1" cx="76.91" cy="144.87" r="6.46"/><circle class="cls-1" cx="199.39" cy="144.87" r="6.46"/><circle class="cls-1" cx="197.3" cy="129.02" r="6.46"/><circle class="cls-1" cx="191.18" cy="114.25" r="6.46"/><circle class="cls-1" cx="181.45" cy="101.57" r="6.46"/><circle class="cls-1" cx="168.77" cy="91.84" r="6.46"/><circle class="cls-1" cx="154" cy="85.72" r="6.46"/><circle class="cls-1" cx="138.15" cy="54.62" r="9.22"/><circle class="cls-1" cx="115.51" cy="57.6" r="9.22"/><circle class="cls-1" cx="94.41" cy="66.34" r="9.22"/><circle class="cls-1" cx="76.29" cy="80.24" r="9.22"/><circle class="cls-1" cx="62.39" cy="98.36" r="9.22"/><circle class="cls-1" cx="53.65" cy="119.46" r="9.22"/><circle class="cls-1" cx="50.67" cy="142.1" r="9.22"/><circle class="cls-1" cx="225.63" cy="142.1" r="9.22"/><circle class="cls-1" cx="222.65" cy="119.46" r="9.22"/><circle class="cls-1" cx="213.91" cy="98.36" r="9.22"/><circle class="cls-1" cx="200.01" cy="80.24" r="9.22"/><circle class="cls-1" cx="181.89" cy="66.34" r="9.22"/><circle class="cls-1" cx="160.79" cy="57.6" r="9.22"/><circle class="cls-1" cx="138.15" cy="13.18" r="13.18"/><circle class="cls-1" cx="105.8" cy="17.43" r="13.18"/><circle class="cls-1" cx="75.66" cy="29.92" r="13.18"/><circle class="cls-1" cx="49.78" cy="49.78" r="13.18"/><circle class="cls-1" cx="29.92" cy="75.66" r="13.18"/><circle class="cls-1" cx="17.43" cy="105.8" r="13.18"/><circle class="cls-1" cx="13.18" cy="138.15" r="13.18"/><circle class="cls-1" cx="263.12" cy="138.15" r="13.18"/><circle class="cls-1" cx="258.86" cy="105.8" r="13.18"/><circle class="cls-1" cx="246.38" cy="75.66" r="13.18"/><circle class="cls-1" cx="226.52" cy="49.78" r="13.18"/><circle class="cls-1" cx="200.63" cy="29.92" r="13.18"/><circle class="cls-1" cx="170.49" cy="17.43" r="13.18"/></g></g></svg>