<svg xmlns="http://www.w3.org/2000/svg" viewBox="0 0 175 175"><defs><style>.cls-1{fill:#1d1d1b;}</style></defs><g id="Calque_2" data-name="Calque 2"><g id="Calque_1-2" data-name="Calque 1"><path class="cls-1" d="M108.63,130.2a4.49,4.49,0,0,0,2.82,2.12l44.34,11.92L119.3,128.58a4.84,4.84,0,0,1-2.17-1.94l-16-27.8,26.05,15.06a4.4,4.4,0,0,0,3.46.46L175,102.49l-39.44,4.66a4.65,4.65,0,0,1-2.82-.55L104.89,90.53H132a11.84,11.84,0,0,0,8.37-3.47l30.34-30.34L139,80.5a4.53,4.53,0,0,1-2.77.93H104.1l26.1-15.06a4.57,4.57,0,0,0,2.12-2.77l11.87-44.39L128.54,55.7a4.62,4.62,0,0,1-1.9,2.17l-27.8,16L113.9,47.85a4.59,4.59,0,0,0,.46-3.47L102.49,0l4.66,39.44a4.29,4.29,0,0,1-.6,2.82L90.52,70V43a11.82,11.82,0,0,0-3.46-8.36L56.72,4.25,80.5,36.07a4.77,4.77,0,0,1,.88,2.73v32l-15-26a4.88,4.88,0,0,0-2.77-2.12L19.21,30.81,55.7,46.46a4.62,4.62,0,0,1,2.17,1.9L73.94,76.21,47.85,61.1a4.83,4.83,0,0,0-3.47-.46L0,72.56l39.44-4.71a4.69,4.69,0,0,1,2.82.6L70,84.47H40a4.75,4.75,0,0,0-3.23,1.34L4.25,118.28,36,94.54a4.63,4.63,0,0,1,2.77-.92H70.85l-26,15.06a4.44,4.44,0,0,0-2.12,2.77L30.81,155.79,46.46,119.3a4.52,4.52,0,0,1,1.9-2.13l27.8-16L61.1,127.2a4.51,4.51,0,0,0-.46,3.46L72.51,175l-4.66-39.4a4.42,4.42,0,0,1,.6-2.86l16-27.71v30a4.41,4.41,0,0,0,1.34,3.23l32.47,32.47L94.5,139a4.72,4.72,0,0,1-.88-2.72v-32ZM87.75,87.34a.43.43,0,0,1-.18-.09h0a.3.3,0,0,1-.18,0s0,0-.09,0a.07.07,0,0,0,0-.09c0-.09.09-.18,0-.28s.09.14.14.19.19-.14.19-.19a.62.62,0,0,0,.09.23.31.31,0,0,0,.18-.09,1.16,1.16,0,0,0-.09.19.07.07,0,0,1-.09,0S87.71,87.29,87.75,87.34Zm-.46.37s0-.09-.09,0v.09c-.09,0-.19-.09-.28,0s.14-.09.19-.14.09-.09.09-.14h0v0A.47.47,0,0,1,87.29,87.71Zm.46.09h-.13c-.05,0,0,0,0,0s.09-.13.13-.18a.16.16,0,0,1,0-.14c0-.05,0-.05,0-.05s0,.1.09.05a.24.24,0,0,0,.23.19.44.44,0,0,0-.23.09.18.18,0,0,0,.09.18S87.85,87.85,87.75,87.8Z"/></g></g></svg>