<svg xmlns="http://www.w3.org/2000/svg" viewBox="0 0 145.78 145.81"><defs><style>.cls-1{fill:#fff;}</style></defs><g id="Calque_2" data-name="Calque 2"><g id="Calque_1-2" data-name="Calque 1"><path d="M24.3,48.59c-.43,0-.83,0-1.25,0A24.34,24.34,0,0,0,0,72.89V24.3A24.28,24.28,0,0,0,24.3,48.59Z"/><path d="M25.55,48.62h-2.5c.42,0,.82,0,1.25,0S25.12,48.59,25.55,48.62Z"/><path d="M23.05,0A24.32,24.32,0,0,0,0,24.3V0Z"/><path class="cls-1" d="M25.55,0h-2.5c.42,0,.82,0,1.25,0S25.12,0,25.55,0Z"/><path d="M72.89,48.59c-.42,0-.82,0-1.25,0a24.34,24.34,0,0,0-23,24.27,24.33,24.33,0,0,0-23-24.27c-.43,0-.83,0-1.25,0A24.28,24.28,0,0,0,48.59,24.3,24.29,24.29,0,0,0,72.89,48.59Z"/><path d="M74.14,48.62h-2.5c.43,0,.83,0,1.25,0S73.72,48.59,74.14,48.62Z"/><path d="M71.64,0a24.32,24.32,0,0,0-23,24.27A24.31,24.31,0,0,0,25.55,0Z"/><path d="M120.24,0a24.32,24.32,0,0,0-23,24.27A24.32,24.32,0,0,0,74.14,0Z"/><path class="cls-1" d="M74.14,0h-2.5c.43,0,.83,0,1.25,0S73.72,0,74.14,0Z"/><path d="M121.49,48.59c-.43,0-.83,0-1.25,0a24.34,24.34,0,0,0-23,24.27,24.34,24.34,0,0,0-23-24.27c-.42,0-.82,0-1.25,0A24.28,24.28,0,0,0,97.19,24.3,24.28,24.28,0,0,0,121.49,48.59Z"/><path d="M122.74,48.62h-2.5c.42,0,.82,0,1.25,0S122.31,48.59,122.74,48.62Z"/><path d="M145.78,0V24.3A24.31,24.31,0,0,0,122.74,0Z"/><path class="cls-1" d="M122.74,0h-2.5c.42,0,.82,0,1.25,0S122.31,0,122.74,0Z"/><path d="M24.3,97.19c-.43,0-.83,0-1.25,0A24.32,24.32,0,0,0,0,121.49V72.89A24.31,24.31,0,0,0,24.3,97.19Z"/><path d="M25.55,97.22h-2.5c.42,0,.82,0,1.25,0S25.12,97.19,25.55,97.22Z"/><path class="cls-1" d="M25.55,48.62h-2.5c.42,0,.82,0,1.25,0S25.12,48.59,25.55,48.62Z"/><path d="M72.89,97.19a24.31,24.31,0,0,0-24.3,24.3,24.31,24.31,0,0,0-23-24.27c-.43,0-.83,0-1.25,0a24.3,24.3,0,0,0,24.29-24.3A24.31,24.31,0,0,0,72.89,97.19Z"/><path d="M74.14,48.62h-2.5c.43,0,.83,0,1.25,0S73.72,48.59,74.14,48.62Z"/><path class="cls-1" d="M74.14,48.62h-2.5c.43,0,.83,0,1.25,0S73.72,48.59,74.14,48.62Z"/><path d="M121.49,97.19a24.3,24.3,0,0,0-24.3,24.3,24.3,24.3,0,0,0-24.3-24.3,24.31,24.31,0,0,0,24.3-24.3A24.31,24.31,0,0,0,121.49,97.19Z"/><path d="M145.78,24.3V72.89a24.33,24.33,0,0,0-23-24.27c-.43,0-.83,0-1.25,0A24.28,24.28,0,0,0,145.78,24.3Z"/><path d="M122.74,48.62h-2.5c.42,0,.82,0,1.25,0S122.31,48.59,122.74,48.62Z"/><path class="cls-1" d="M122.74,48.62h-2.5c.42,0,.82,0,1.25,0S122.31,48.59,122.74,48.62Z"/><path class="cls-1" d="M25.55,97.22h-2.5c.42,0,.82,0,1.25,0S25.12,97.19,25.55,97.22Z"/><path d="M72.89,145.78H48.59v0H0V121.49a24.3,24.3,0,0,0,48.59,0A24.3,24.3,0,0,0,72.89,145.78Z"/><path d="M121.49,145.78H72.89a24.3,24.3,0,0,0,24.3-24.29A24.3,24.3,0,0,0,121.49,145.78Z"/><path d="M145.78,72.89v48.6a24.3,24.3,0,0,0-24.29-24.3A24.3,24.3,0,0,0,145.78,72.89Z"/><path d="M145.78,121.49v24.29H121.49A24.3,24.3,0,0,0,145.78,121.49Z"/></g></g></svg>