<svg xmlns="http://www.w3.org/2000/svg" viewBox="0 0 175 175.01"><defs><style>.cls-1{fill:none;stroke:#000;stroke-miterlimit:10;}</style></defs><g id="Calque_2" data-name="Calque 2"><g id="Calque_1-2" data-name="Calque 1"><path class="cls-1" d="M174.5,87.5c0-48.08-38.49-87.42-87-87C42.66.9.52,42.35.5,87.5c0,44.71,42.59,86.6,87,87C135.58,174.94,174.51,135.11,174.5,87.5Z"/><path class="cls-1" d="M88,169.31C46.21,168.92,6.07,129.8,6.08,87.43,6.09,44.59,45.9,5.93,88,5.55c45.71-.42,81.87,36.94,81.89,81.88C169.86,131.91,133.39,169.74,88,169.31Z"/><path class="cls-1" d="M165.9,87.24c0-41.82-34-77.19-76.76-76.76-39.28.39-76.76,37.3-76.77,76.76,0,39,37.72,76.36,76.77,76.77C131.74,164.45,165.92,128.64,165.9,87.24Z"/><path class="cls-1" d="M90.92,158.61C53.13,159.5,19.29,120.68,19.28,87c0-34.06,33.56-72.56,71.64-71.65C130.11,16.25,162.55,48,162.57,87,162.59,125.56,129.82,157.69,90.92,158.61Z"/><path class="cls-1" d="M159.76,86.59c0-36.09-30.26-65.66-66.53-66.53C57.78,19.22,26.69,54.91,26.7,86.59c0,31.41,31.33,67.35,66.53,66.53C129.25,152.28,159.78,122.35,159.76,86.59Z"/><path class="cls-1" d="M96,147.57c-32.55.75-61.4-32.06-61.41-61.41C34.53,56.58,63.35,24,96,24.75c33.13.77,61.4,28.47,61.42,61.41C157.38,118.85,129,146.82,96,147.57Z"/><path class="cls-1" d="M155.3,85.68A56.23,56.23,0,0,0,99,29.38c-30.14,0-56.3,27.46-56.3,56.3C42.72,114.33,69.23,142,99,142A56.58,56.58,0,0,0,155.3,85.68Z"/><path class="cls-1" d="M102.3,136.33c-27.25,0-51.16-24.57-51.18-51.18C51.1,58.36,74.74,34,102.3,34a51.18,51.18,0,0,1,0,102.35Z"/><path class="cls-1" d="M151.78,84.61a46.13,46.13,0,0,0-46.06-46.06c-24.89,0-46,21.39-46.06,46.06S81,130.7,105.72,130.67A46.27,46.27,0,0,0,151.78,84.61Z"/><path class="cls-1" d="M109.19,125c-21-.39-40.95-19.81-40.94-40.94S88.14,43.5,109.19,43.12c21.93-.4,40.94,19.65,40.94,40.94S131.06,125.41,109.19,125Z"/><path class="cls-1" d="M148.43,83.52c0-19.29-17.3-35-35.82-35.83C92.85,46.8,76.79,65.12,76.78,83.52s16,36.72,35.83,35.82C131.21,118.5,148.44,102.82,148.43,83.52Z"/><path class="cls-1" d="M115.88,113.7C98.8,114.5,85.16,99.11,85.17,83s13.77-31.49,30.71-30.71c15.77.73,30.69,14.12,30.7,30.71S131.77,113,115.88,113.7Z"/><path class="cls-1" d="M144.49,82.52c0-13-11.9-25.47-25.59-25.59S93.33,68.51,93.32,82.52a25.55,25.55,0,0,0,25.58,25.59C132.88,108,144.51,95.54,144.49,82.52Z"/><path class="cls-1" d="M121.59,102.56c-11.8.08-21-9.08-20.47-20.47s8.67-20.39,20.47-20.47,21,9.08,20.47,20.47S133.4,102.48,121.59,102.56Z"/><path class="cls-1" d="M139.2,81.73c.36-8.54-6.5-15.41-15.35-15.35s-15,6.81-15.35,15.35,6.5,15.41,15.35,15.36S138.84,90.28,139.2,81.73Z"/><path class="cls-1" d="M125.58,91.69a9.93,9.93,0,0,1-10.23-10.23c.2-5.69,4.37-10.21,10.23-10.24a10,10,0,0,1,10.24,10.24C135.61,87.15,131.44,91.66,125.58,91.69Z"/><path class="cls-1" d="M131.81,81.28a5,5,0,0,0-5.12-5.12,5.12,5.12,0,0,0-5.12,5.12,5,5,0,0,0,5.12,5.12A5.12,5.12,0,0,0,131.81,81.28Z"/><path class="cls-1" d="M127.08,81.22c-2.06,35.12-37,58.27-39.58,93.28"/><path class="cls-1" d="M127.08,81.22c9.48,28.31-12.31,57.26-5.65,86.56"/><path class="cls-1" d="M127.08,81.22c13.28,21.19,10.91,45.5,23.43,67.56"/><path class="cls-1" d="M127.08,81.22c17,11,24.67,27.91,41.44,39.48"/><path class="cls-1" d="M127.08,81.22c16.34,1.1,31.09,5.12,47.42,6.28"/><path class="cls-1" d="M127.08,81.22c14.94-8.14,26.55-18.83,41.44-27.11"/><path class="cls-1" d="M127.08,81.22c11.49-17.61,12.21-37.35,23.43-55.47"/><path class="cls-1" d="M127.08,81.22c4.33-25.88-8.77-47.92-5.65-74.2"/><path class="cls-1" d="M127.08,81.22C120.87,50.11,94.11,31.48,87.5.5"/><path class="cls-1" d="M127.08,81.22C111.38,50,73.27,36.87,54.85,7"/><path class="cls-1" d="M127.08,81.22c-27.5-25.53-69.36-33-99.61-55.47"/><path class="cls-1" d="M127.08,81.22C89.12,66.57,46.54,66.51,7.76,54.11"/><path class="cls-1" d="M127.08,81.22C84.82,81.47,42.75,86.94.5,87.5"/><path class="cls-1" d="M127.08,81.22C88.22,96.81,47,106.09,7.76,120.7"/><path class="cls-1" d="M127.08,81.22c-29,27.36-68.6,42.37-99.61,67.56"/><path class="cls-1" d="M127.08,81.22c-16.59,33.34-51.77,55.34-72.23,86.56"/></g></g></svg>