<svg xmlns="http://www.w3.org/2000/svg" viewBox="0 0 358.19 162.93"><g id="Calque_2" data-name="Calque 2"><g id="Calque_1-2" data-name="Calque 1"><path d="M62,0V1c36.39,0,86,10.77,136.13,29.54C242.88,47.29,282.88,68.41,310.81,90c13.53,10.46,23.48,20.46,29.55,29.7,6.16,9.39,8,17.54,5.52,24.23-4.35,11.6-22,18-49.73,18-36.39,0-86-10.77-136.13-29.54C115.31,115.64,75.31,94.52,47.37,72.92,33.84,62.45,23.9,52.46,17.83,43.21S9.81,25.68,12.31,19C16.65,7.39,34.32,1,62,1V0m0,0c-27.29,0-46,6.11-50.67,18.64C.65,47.28,67,98.63,159.67,133.32c52.1,19.52,101.4,29.61,136.48,29.61,27.29,0,46-6.11,50.66-18.64,10.73-28.64-55.66-80-148.29-114.68C146.42,10.09,97.12,0,62,0Z"/><path d="M97.16,17.92v1c28.16,0,59.93,3.14,91.87,9.08C236,36.73,279,50.58,310.3,67,325.44,75,337,83.08,344.55,91.13S355.5,107,354.19,114c-3.44,18.49-39.13,30-93.15,30-28.17,0-59.94-3.15-91.89-9.09-46.94-8.72-90-22.58-121.26-39C32.75,88,21.22,79.85,13.64,71.8S2.69,55.92,4,48.9c3.44-18.49,39.14-30,93.16-30v-1m0,0c-53,0-90.45,11-94.14,30.8-5.59,30.07,68.71,69.1,166,87.19,33.15,6.16,64.67,9.1,92.07,9.1,53,0,90.45-11,94.14-30.8,5.59-30.07-68.71-69.1-166-87.19-33.15-6.16-64.68-9.1-92.07-9.1Z"/><path d="M174.11,26.06v1l5.49,0c47.74.45,92.56,6.61,126.19,17.35,16.3,5.21,29.06,11.2,37.93,17.81S357.25,76,357.19,83.13c-.13,14-18,27.22-50.32,37.17-32.6,10-76.21,15.56-122.79,15.56-1.83,0-3.66,0-5.49,0-47.74-.45-92.56-6.61-126.2-17.36-16.29-5.2-29-11.19-37.92-17.8S.93,86.94,1,79.8c.13-14,18-27.22,50.31-37.17,32.61-10,76.22-15.57,122.8-15.57v-1m0,0C77.74,26.06.28,49.78,0,79.79c-.28,30.59,79.67,56.12,178.58,57.05l5.5,0c96.37,0,173.83-23.71,174.11-53.72.28-30.59-79.67-56.13-178.58-57l-5.5,0Z"/><path d="M254.8,20.39c28.29,0,52.57,2.93,70.2,8.47,17.87,5.6,28.16,13.67,29.77,23.32,1.17,7-2.21,14.68-10.07,22.71S325.29,90.7,310,98.37c-31.56,15.83-74.87,28.88-122,36.73a525.63,525.63,0,0,1-84.65,7.43c-28.29,0-52.57-2.92-70.21-8.46C15.32,128.47,5,120.4,3.42,110.75c-1.18-7,2.21-14.68,10.06-22.71s19.41-15.81,34.7-23.48c31.56-15.84,74.88-28.88,122-36.73a526.83,526.83,0,0,1,84.65-7.44h0m0-1A523.78,523.78,0,0,0,170,26.84C72.42,43.11-2.6,80.75,2.43,110.92c3.47,20.8,44.08,32.61,101,32.61a522.57,522.57,0,0,0,84.81-7.44C285.77,119.82,360.79,82.18,355.76,52c-3.47-20.8-44.09-32.62-101-32.62Z"/><path d="M294.1,3.17c29.8,0,48.6,6.73,52.91,18.94,2.38,6.74.37,14.85-6,24.12S324.67,65.17,311,75.38c-28.33,21.07-68.72,41.44-113.74,57.35-48.6,17.18-97.12,27-133.11,27-29.81,0-48.61-6.73-52.93-18.95-2.38-6.73-.37-14.84,6-24.11s16.37-18.94,30.1-29.15C75.57,66.47,116,46.11,161,30.2c48.6-17.18,97.12-27,133.13-27h0m0-1c-34.82,0-82.75,9.16-133.45,27.08C67.38,62.22,0,112.31,10.23,141.15c4.65,13.16,24.64,19.61,53.87,19.61,34.82,0,82.75-9.17,133.45-27.08,93.26-33,160.6-83.06,150.41-111.9C343.31,8.62,323.32,2.16,294.09,2.17Z"/></g></g></svg>