<svg xmlns="http://www.w3.org/2000/svg" viewBox="0 0 175 172.36"><defs><style>.cls-1{fill:#1d1d1b;}</style></defs><g id="Calque_2" data-name="Calque 2"><g id="Calque_1-2" data-name="Calque 1"><path class="cls-1" d="M149.9,122.91l8.68,15.75-18.3-4.12A68.88,68.88,0,0,1,114,122.66a75,75,0,0,1,3,31l-1.88,18.18-12.67-14.54A75,75,0,0,1,88,131.87a71.32,71.32,0,0,1-15,26.91L61,172.36,59.12,153a82.17,82.17,0,0,1,2.57-29.57A66.07,66.07,0,0,1,34.48,136l-17.12,3.87,9.38-17a73.19,73.19,0,0,1,18.53-22.07A70.38,70.38,0,0,1,16.19,94.3L0,86.79l17.36-8a67,67,0,0,1,28.15-6.55,68.38,68.38,0,0,1-20.41-23L16.42,33.45,35,37.57A71.57,71.57,0,0,1,61,49.21a74.24,74.24,0,0,1-3.05-30.79L59.81.24,72.48,14.79A75.6,75.6,0,0,1,87.27,40.24a71.3,71.3,0,0,1,15-26.91L114,0l1.87,19.39a75.51,75.51,0,0,1-2.57,29.34,68.51,68.51,0,0,1,27.44-12.61l17.13-3.64-9.39,16.73a70.24,70.24,0,0,1-19.23,22.3,69.71,69.71,0,0,1,29.79,6.55L175,85.33l-17.12,8a67.39,67.39,0,0,1-28.39,6.55A68.5,68.5,0,0,1,149.9,122.91Z"/></g></g></svg>