<svg xmlns="http://www.w3.org/2000/svg" viewBox="0 0 289.45 175"><defs><style>.cls-1{fill:#1d1d1b;}</style></defs><g id="Calque_2" data-name="Calque 2"><g id="Calque_1-2" data-name="Calque 1"><path class="cls-1" d="M12.22.15H153.6a0,0,0,0,1,0,0v28a12.22,12.22,0,0,1-12.22,12.22H0a0,0,0,0,1,0,0v-28A12.22,12.22,0,0,1,12.22.15Z"/><path class="cls-1" d="M0,154.72a20.08,20.08,0,0,1,20.11-20.08h47.7v40.19H20.11A20.09,20.09,0,0,1,0,154.72Z"/><path class="cls-1" d="M153.59,45.07V85.29h-61A20.09,20.09,0,0,1,72.52,65.18V45.07Z"/><path class="cls-1" d="M168.37.32h76.08a0,0,0,0,1,0,0V40.54a0,0,0,0,1,0,0H163.37a0,0,0,0,1,0,0V5.32A5,5,0,0,1,168.37.32Z"/><path class="cls-1" d="M204.29,44.94h125.1a5,5,0,0,1,5,5V85.16a0,0,0,0,1,0,0H209.29a5,5,0,0,1-5-5V44.94A0,0,0,0,1,204.29,44.94Z" transform="translate(334.39 -204.29) rotate(90)"/><path class="cls-1" d="M153.59,90v84.86H72.52V110.08A20.08,20.08,0,0,1,92.6,90Z"/><path class="cls-1" d="M67.81,45.07v84.86H20.11A20.09,20.09,0,0,1,0,109.82V45.07Z"/><path class="cls-1" d="M244.44,65.32V175H163.37V45.24h61A20.08,20.08,0,0,1,244.44,65.32Z"/><path class="cls-1" d="M289.44,154.89a20.12,20.12,0,0,1-40.23,0V134.81h20.12A20.08,20.08,0,0,1,289.44,154.89Z"/></g></g></svg>