<svg xmlns="http://www.w3.org/2000/svg" viewBox="0 0 175 155"><defs><style>.cls-1{fill:#1d1d1b;}</style></defs><g id="Calque_2" data-name="Calque 2"><g id="Calque_1-2" data-name="Calque 1"><path class="cls-1" d="M152.81,77.53c0-22.52-16-42.79-41.46-57C128.79,10.88,150.7,4.06,175,1.33A213,213,0,0,0,151.16,0,197.82,197.82,0,0,0,87.51,10.09C68.73,3.66,47,0,23.85,0A213.22,213.22,0,0,0,0,1.33c24.3,2.73,46.21,9.55,63.65,19.24C38.16,34.73,22.2,55,22.2,77.47s16,42.79,41.45,56.95C46.21,144.1,24.3,150.92,0,153.66A213.19,213.19,0,0,0,23.85,155c23.15,0,44.88-3.66,63.66-10.09A197.82,197.82,0,0,0,151.16,155,213,213,0,0,0,175,153.66c-24.3-2.74-46.2-9.56-63.64-19.24C136.85,120.27,152.81,100,152.81,77.53Zm-82.93-.06c0-14.27,6.42-27.63,17.62-39.1,11.2,11.49,17.62,24.87,17.62,39.16s-6.41,27.62-17.61,39.09C76.3,105.14,69.88,91.76,69.88,77.47Z"/></g></g></svg>