<svg xmlns="http://www.w3.org/2000/svg" viewBox="0 0 175 175"><defs><style>.cls-1{fill:#1d1d1b;}</style></defs><g id="Calque_2" data-name="Calque 2"><g id="Calque_1-2" data-name="Calque 1"><path class="cls-1" d="M113.89,93.81a0,0,0,0,1,0,0c.15.09.32.16.47.25A2.52,2.52,0,0,0,113.89,93.81Z"/><path class="cls-1" d="M113.52,79.77v0l.54,0A4.34,4.34,0,0,0,113.52,79.77Z"/><path class="cls-1" d="M106.14,67.79v0l.46-.27Z"/><path class="cls-1" d="M93.83,61.1s0,0,0,0a5.2,5.2,0,0,1,.25-.46A2.62,2.62,0,0,0,93.83,61.1Z"/><path class="cls-1" d="M79.74,61.49c0-.19,0-.36,0-.54a4.34,4.34,0,0,0,0,.53Z"/><path class="cls-1" d="M9.87,128c4-1.34,8.21-2.92,12.47-4.72,14.28-6.05,26.2-13.29,33-19.55a29.17,29.17,0,0,0,4.45-4.94,6.3,6.3,0,0,0-.5,5.83,2.63,2.63,0,0,0,.27.53c.76-.84,1.53-1.63,2.29-2.41q3.19-3.3,6.21-6a6.21,6.21,0,0,0-8.24,2.07,10.17,10.17,0,0,0,1.64-3.55s0,0,0,0a4.17,4.17,0,0,0-.17-2.54c-.81-1.91-3.22-3-6.81-3.38a6.05,6.05,0,0,0,1.2,3.39,5.94,5.94,0,0,0,.7.85c-.84-.28-1.71-.54-2.63-.77h0a57.88,57.88,0,0,0-7.83-1.5,50.6,50.6,0,0,0-15.73.27h0a24.83,24.83,0,0,0-2.77.71c-3.71-.69-7.23-1.48-10.5-2.34-2.35-.61-4.55-1.25-6.63-2l-.06,0A64.07,64.07,0,0,1,0,83.78c4.15.85,8.58,1.56,13.16,2.14,15.41,1.89,29.34,1.59,38.39-.42a28.63,28.63,0,0,0,6.34-2A6.31,6.31,0,0,0,55.29,86a6.66,6.66,0,0,0-.75,2.28c0,.2,0,.42,0,.62,1.07-.37,2.14-.7,3.22-1,2.93-.84,5.74-1.55,8.37-2.1a6.2,6.2,0,0,0-4.56-3,6.12,6.12,0,0,0-3.61.63,10.3,10.3,0,0,0,3.2-2.23l0,0a4.36,4.36,0,0,0,1.1-2.3c.26-2.06-1.27-4.21-4.21-6.31a6.21,6.21,0,0,0-.67,3.52,8.42,8.42,0,0,0,.21,1.07c-.59-.66-1.22-1.31-1.89-2h0a60.18,60.18,0,0,0-6-5.21,50.12,50.12,0,0,0-13.76-7.63l0,0c-1-.32-1.88-.57-2.74-.78-2.86-2.45-5.52-4.88-7.94-7.28-1.72-1.7-3.31-3.34-4.77-5a.09.09,0,0,1,0-.05,64.71,64.71,0,0,1-6.75-8.7c3.17,2.81,6.63,5.65,10.32,8.44C36.31,58.32,48.53,65,57.37,67.79a29,29,0,0,0,6.52,1.4,6.24,6.24,0,0,0-3.52.87,6.37,6.37,0,0,0-1.79,1.62,5.36,5.36,0,0,0-.34.49c1.12.23,2.2.5,3.26.78,3,.73,5.76,1.54,8.31,2.37A6.24,6.24,0,0,0,63.9,69.2a9.81,9.81,0,0,0,3.87-.36s0,0,0,0a4,4,0,0,0,2.11-1.41c1.25-1.64,1-4.3-.49-7.57a6,6,0,0,0-2.32,2.71,5.3,5.3,0,0,0-.38,1c-.16-.86-.4-1.74-.65-2.65h0a54.87,54.87,0,0,0-2.61-7.56,50.38,50.38,0,0,0-8.11-13.47v0a26.34,26.34,0,0,0-2-2.06c-1.24-3.54-2.34-7-3.23-10.26-.64-2.34-1.19-4.57-1.63-6.72a0,0,0,0,1,0-.05A64,64,0,0,1,47,9.85c1.34,4,2.91,8.21,4.74,12.47,6,14.3,13.26,26.21,19.52,33.05a29.77,29.77,0,0,0,5,4.46,6.06,6.06,0,0,0-3.48-1,6.3,6.3,0,0,0-2.35.49,3.41,3.41,0,0,0-.54.28c.85.75,1.64,1.52,2.42,2.28,2.21,2.12,4.21,4.2,6,6.2a6.17,6.17,0,0,0-2-8.23,10.3,10.3,0,0,0,3.54,1.63h0a4.15,4.15,0,0,0,2.53-.17c1.93-.8,3-3.22,3.39-6.82a6.18,6.18,0,0,0-3.39,1.2,6.84,6.84,0,0,0-.83.7c.27-.82.52-1.7.76-2.61v0a55.21,55.21,0,0,0,1.51-7.85,50.16,50.16,0,0,0-.28-15.71v0a28.42,28.42,0,0,0-.7-2.76c.69-3.71,1.48-7.23,2.34-10.5.61-2.35,1.26-4.57,1.94-6.64,0,0,0,0,0-.05A64.07,64.07,0,0,1,91.22,0c-.85,4.15-1.56,8.55-2.14,13.16-1.89,15.41-1.59,29.34.42,38.39a29.71,29.71,0,0,0,2,6.34A6.19,6.19,0,0,0,89,55.29a6,6,0,0,0-2.28-.75c-.2,0-.42,0-.62,0,.35,1.09.68,2.13,1,3.19.85,3,1.54,5.76,2.11,8.4a6.17,6.17,0,0,0,3-4.57,6,6,0,0,0-.63-3.61,10,10,0,0,0,2.27,3.18s0,0,0,0a4,4,0,0,0,2.27,1.12c2.06.26,4.21-1.27,6.33-4.21a6.14,6.14,0,0,0-3.53-.66,6.74,6.74,0,0,0-1.07.21c.66-.59,1.3-1.23,2-1.9v0a54.81,54.81,0,0,0,5.24-6,50,50,0,0,0,7.62-13.74l0,0a24.45,24.45,0,0,0,.76-2.75c2.46-2.86,4.92-5.53,7.3-7.93,1.68-1.73,3.36-3.32,5-4.77a.09.09,0,0,1,0,0,60.63,60.63,0,0,1,8.7-6.75c-2.81,3.17-5.64,6.62-8.44,10.32C116.69,36.29,110,48.52,107.19,57.36a30.31,30.31,0,0,0-1.38,6.5,6.4,6.4,0,0,0-2.48-5.3,3.32,3.32,0,0,0-.5-.33c-.24,1.11-.5,2.18-.76,3.25-.73,3-1.55,5.77-2.38,8.32a6.26,6.26,0,0,0,6.11-5.92,9.73,9.73,0,0,0,.34,3.88v0a4.18,4.18,0,0,0,1.43,2.12c1.66,1.26,4.32,1,7.59-.48a6,6,0,0,0-2.72-2.35,6.81,6.81,0,0,0-1-.35c.85-.18,1.74-.4,2.65-.65v0a59.16,59.16,0,0,0,7.55-2.62,49.9,49.9,0,0,0,13.47-8.11l0,0a21.43,21.43,0,0,0,2-2c3.58-1.25,7-2.33,10.28-3.22q3.49-1,6.72-1.63a0,0,0,0,1,0,0A61.93,61.93,0,0,1,165.15,47c-4,1.34-8.21,2.91-12.48,4.71-14.31,6.06-26.2,13.29-33,19.55a28.53,28.53,0,0,0-4.46,5,6.4,6.4,0,0,0,1-3.48,6.3,6.3,0,0,0-.5-2.37,5,5,0,0,0-.27-.52c-.75.85-1.52,1.64-2.28,2.42-2.12,2.21-4.2,4.21-6.2,6a6.2,6.2,0,0,0,8.23-2,10.3,10.3,0,0,0-1.63,3.54v0a4.15,4.15,0,0,0,.17,2.53c.8,1.93,3.21,3,6.81,3.38a6.4,6.4,0,0,0-1.91-4.22c.84.28,1.72.53,2.63.77h0a56.37,56.37,0,0,0,7.83,1.5,50.61,50.61,0,0,0,15.73-.27h0a25.2,25.2,0,0,0,2.76-.7c3.72.7,7.24,1.49,10.53,2.34,2.33.62,4.53,1.26,6.62,1.94,0,0,0,0,.05,0A64.07,64.07,0,0,1,175,91.22c-4.15-.85-8.57-1.58-13.16-2.14-15.42-1.91-29.33-1.61-38.39.39a30.24,30.24,0,0,0-6.32,2.06A6.32,6.32,0,0,0,119.72,89a6.65,6.65,0,0,0,.76-2.29,4,4,0,0,0,0-.6c-1.09.35-2.15.67-3.21,1-2.92.85-5.74,1.55-8.37,2.1a6.15,6.15,0,0,0,4.56,3,6.08,6.08,0,0,0,3.61-.63,9.76,9.76,0,0,0-3.18,2.25,0,0,0,0,0,0,0,4,4,0,0,0-1.12,2.28c-.25,2.07,1.28,4.22,4.21,6.33a6.41,6.41,0,0,0,.47-4.61c.57.66,1.22,1.32,1.89,2h0a55.55,55.55,0,0,0,6,5.23,50.37,50.37,0,0,0,13.77,7.62l0,0a21.63,21.63,0,0,0,2.74.78c2.86,2.46,5.51,4.9,7.94,7.28,1.72,1.7,3.3,3.36,4.76,5a.09.09,0,0,1,0,0,62.6,62.6,0,0,1,6.76,8.68c-3.18-2.79-6.64-5.63-10.33-8.42-12.4-9.36-24.61-16.08-33.45-18.85a30.17,30.17,0,0,0-6.52-1.39,6.31,6.31,0,0,0,3.52-.88,6.56,6.56,0,0,0,1.78-1.6c.12-.16.24-.35.36-.51-1.12-.22-2.21-.49-3.28-.76-3-.73-5.75-1.53-8.3-2.36a6.27,6.27,0,0,0,2.48,4.85,6.17,6.17,0,0,0,3.43,1.24,9.83,9.83,0,0,0-3.87.36s0,0,0,0a4.06,4.06,0,0,0-2.11,1.41c-1.26,1.66-1,4.3.48,7.59a6.16,6.16,0,0,0,2.33-2.73,4.53,4.53,0,0,0,.37-1c.18.85.4,1.74.67,2.63v0a56.7,56.7,0,0,0,2.62,7.55,50.12,50.12,0,0,0,8.11,13.47v0a21.73,21.73,0,0,0,2,2c1.26,3.56,2.33,7,3.23,10.29q1,3.49,1.64,6.7a.08.08,0,0,1,0,.07,63,63,0,0,1,1.5,10.9c-1.33-4-2.92-8.19-4.74-12.47-6-14.3-13.28-26.22-19.53-33a30.33,30.33,0,0,0-4.94-4.48,6.2,6.2,0,0,0,3.46,1,6.67,6.67,0,0,0,2.37-.5,2.7,2.7,0,0,0,.5-.27c-.85-.76-1.63-1.53-2.4-2.28-2.2-2.13-4.21-4.2-6-6.2a6.12,6.12,0,0,0-.31,5.43,6.26,6.26,0,0,0,2.36,2.8,10.32,10.32,0,0,0-3.54-1.63h0a4.05,4.05,0,0,0-2.57.18c-1.91.81-3,3.22-3.36,6.82a6.33,6.33,0,0,0,3.38-1.19,6.18,6.18,0,0,0,.84-.72c-.28.84-.54,1.71-.77,2.63a62.82,62.82,0,0,0-1.51,7.85,50.92,50.92,0,0,0,.29,15.74v0a19.17,19.17,0,0,0,.7,2.76c-.7,3.72-1.49,7.24-2.35,10.51-.61,2.35-1.25,4.55-1.94,6.64l0,.05A63,63,0,0,1,83.78,175c.85-4.15,1.58-8.57,2.14-13.16,1.91-15.42,1.6-29.36-.41-38.4a30.52,30.52,0,0,0-2-6.34,10,10,0,0,0-2.26-3.2s0,0,0,0a4,4,0,0,0-2.28-1.12c-2.06-.24-4.22,1.28-6.32,4.22a6,6,0,0,0,3.53.65,5.48,5.48,0,0,0,1.06-.19c-.65.57-1.31,1.22-2,1.89h0a60.18,60.18,0,0,0-5.21,6,50,50,0,0,0-7.62,13.74l0,0a26.51,26.51,0,0,0-.77,2.75q-3.69,4.32-7.3,8c-1.7,1.72-3.34,3.31-5,4.75a.07.07,0,0,1-.05,0,63.66,63.66,0,0,1-8.71,6.76c2.81-3.17,5.65-6.63,8.45-10.33,9.35-12.39,16-24.61,18.84-33.44a30.55,30.55,0,0,0,1.39-6.52,6,6,0,0,0,.89,3.5,6.16,6.16,0,0,0,1.59,1.8c.16.12.34.25.51.36.22-1.12.49-2.21.76-3.28.73-3,1.54-5.76,2.37-8.31a6.24,6.24,0,0,0-4.86,2.49,6.07,6.07,0,0,0-1.24,3.43,9.83,9.83,0,0,0-.36-3.87,0,0,0,0,0,0,0,4.12,4.12,0,0,0-1.43-2.12c-1.66-1.26-4.28-1-7.59.47a6.12,6.12,0,0,0,2.73,2.34,5.3,5.3,0,0,0,1,.38c-.85.18-1.74.4-2.65.65a57.13,57.13,0,0,0-7.54,2.63,50,50,0,0,0-13.49,8.09l0,0a25.75,25.75,0,0,0-2,2c-3.57,1.25-7,2.32-10.29,3.23-2.33.65-4.56,1.17-6.71,1.61,0,0,0,0-.06,0A63.81,63.81,0,0,1,9.87,128Z"/><path class="cls-1" d="M67.77,68.84c-.09-.14-.18-.31-.27-.45.11.15.2.29.31.43S67.77,68.84,67.77,68.84Z"/><path class="cls-1" d="M60.62,81c.17.08.34.18.51.24l0,0Z"/><path class="cls-1" d="M61,95.26l.53,0s0,0,0,0Z"/><path class="cls-1" d="M68.4,107.51a3.47,3.47,0,0,0,.44-.31,0,0,0,0,1,0,0Z"/><path class="cls-1" d="M81,114.36a2.34,2.34,0,0,0,.22-.48s0,0,0,0A2.94,2.94,0,0,1,81,114.36Z"/><path class="cls-1" d="M95.28,114.05l0-.55h0C95.27,113.7,95.27,113.87,95.28,114.05Z"/><path class="cls-1" d="M107.51,106.6a3.47,3.47,0,0,0-.31-.44s0,0,0,0S107.42,106.45,107.51,106.6Z"/></g></g></svg>