<svg xmlns="http://www.w3.org/2000/svg" viewBox="0 0 175 173"><defs><style>.cls-1{fill:#1d1d1b;}</style></defs><g id="Calque_2" data-name="Calque 2"><g id="Calque_1-2" data-name="Calque 1"><path class="cls-1" d="M158,106.34a19.83,19.83,0,0,1-14.66,2.31L127,105.13l14.7,6.67a19.91,19.91,0,0,1,10.51,10.61A37.12,37.12,0,0,1,139.93,166a35.74,35.74,0,0,1-44.58-1.63,20.47,20.47,0,0,1-6.67-13.41l-1.75-16.85-1.71,16.25a20.17,20.17,0,0,1-6.67,13.44A35.74,35.74,0,0,1,34,165.38a37.15,37.15,0,0,1-12.26-43.57,20,20,0,0,1,10.51-10.57l15.4-7L31.7,107.69a19.72,19.72,0,0,1-14.63-2.31A37.09,37.09,0,0,1,1.77,62.8a36.26,36.26,0,0,1,37-25.3A19.81,19.81,0,0,1,52,44.39L63.15,57,55.09,42.79a20.57,20.57,0,0,1-2.38-14.87,36.05,36.05,0,0,1,70.25,0,20.51,20.51,0,0,1-2.37,14.87l-8.38,14.76,10.86-12.24a19.72,19.72,0,0,1,13.16-6.85,36.15,36.15,0,0,1,37,25.3A37.07,37.07,0,0,1,158,106.34Z"/></g></g></svg>