<svg xmlns="http://www.w3.org/2000/svg" viewBox="0 0 526.62 167"><defs><style>.cls-1{fill:#1d1d1b;}</style></defs><g id="Calque_2" data-name="Calque 2"><g id="Calque_1-2" data-name="Calque 1"><path class="cls-1" d="M265.31,85.5H387.13c-.56,10.06-5.39,19.9-14.36,29.29-9.59,10-23.41,19.1-41.08,26.92-19.22,8.51-41.78,15-66.38,19.31Z"/><path class="cls-1" d="M251.33,163.19A430.28,430.28,0,0,1,193.57,167c-52.24,0-101.3-9-138.12-25.29C37.78,133.89,24,124.83,14.37,114.79,5.4,105.4.56,95.56,0,85.5H135.49C137.24,120.06,184.26,149.68,251.33,163.19Z"/><path class="cls-1" d="M135.49,81.5H0C.56,71.44,5.4,61.6,14.37,52.2c9.59-10,23.41-19.09,41.08-26.92C92.27,9,141.33,0,193.57,0a430.28,430.28,0,0,1,57.76,3.81C184.26,17.32,137.24,46.93,135.49,81.5Z"/><path class="cls-1" d="M139.5,85.5H261.31V161c-24.6-4.28-47.15-10.8-66.37-19.31-17.67-7.82-31.49-16.88-41.08-26.92C144.89,105.4,140.06,95.56,139.5,85.5Z"/><path class="cls-1" d="M194.94,25.28c19.22-8.51,41.77-15,66.37-19.3V81.5H139.5c.56-10.06,5.39-19.9,14.36-29.3C163.45,42.16,177.27,33.11,194.94,25.28Z"/><path class="cls-1" d="M265.31,81.5V6c24.6,4.28,47.16,10.79,66.38,19.3,17.67,7.83,31.49,16.88,41.08,26.92,9,9.4,13.8,19.24,14.36,29.3Z"/><path class="cls-1" d="M265.31,85.5H387.13c-.56,10.06-5.39,19.9-14.36,29.29-9.59,10-23.41,19.1-41.08,26.92-19.22,8.51-41.78,15-66.38,19.31Z"/><path class="cls-1" d="M251.33,163.19A430.28,430.28,0,0,1,193.57,167c-52.24,0-101.3-9-138.12-25.29C37.78,133.89,24,124.83,14.37,114.79,5.4,105.4.56,95.56,0,85.5H135.49C137.24,120.06,184.26,149.68,251.33,163.19Z"/><path class="cls-1" d="M135.49,81.5H0C.56,71.44,5.4,61.6,14.37,52.2c9.59-10,23.41-19.09,41.08-26.92C92.27,9,141.33,0,193.57,0a430.28,430.28,0,0,1,57.76,3.81C184.26,17.32,137.24,46.93,135.49,81.5Z"/><path class="cls-1" d="M139.5,85.5H261.31V161c-24.6-4.28-47.15-10.8-66.37-19.31-17.67-7.82-31.49-16.88-41.08-26.92C144.89,105.4,140.06,95.56,139.5,85.5Z"/><path class="cls-1" d="M194.94,25.28c19.22-8.51,41.77-15,66.37-19.3V81.5H139.5c.56-10.06,5.39-19.9,14.36-29.3C163.45,42.16,177.27,33.11,194.94,25.28Z"/><path class="cls-1" d="M265.31,81.5V6c24.6,4.28,47.16,10.79,66.38,19.3,17.67,7.83,31.49,16.88,41.08,26.92,9,9.4,13.8,19.24,14.36,29.3Z"/><path class="cls-1" d="M265.31,85.5V161c24.6-4.28,47.16-10.8,66.38-19.31,17.67-7.82,31.49-16.88,41.08-26.92,9-9.39,13.8-19.23,14.36-29.29Zm-125.81,0c.56,10.06,5.39,19.9,14.36,29.29,9.59,10,23.41,19.1,41.08,26.92,19.22,8.51,41.77,15,66.37,19.31V85.5ZM372.77,52.2c-9.59-10-23.41-19.09-41.08-26.92-19.22-8.51-41.78-15-66.38-19.3V81.5H387.13C386.57,71.44,381.74,61.6,372.77,52.2Zm139.49,0c-9.59-10-23.41-19.09-41.08-26.92C434.35,9,385.3,0,333.06,0A430.28,430.28,0,0,0,275.3,3.81C342.37,17.32,389.39,46.93,391.14,81.5H526.62C526.06,71.44,521.23,61.6,512.26,52.2ZM139.5,85.5c.56,10.06,5.39,19.9,14.36,29.29,9.59,10,23.41,19.1,41.08,26.92,19.22,8.51,41.77,15,66.37,19.31V85.5ZM372.77,52.2c-9.59-10-23.41-19.09-41.08-26.92-19.22-8.51-41.78-15-66.38-19.3V81.5H387.13C386.57,71.44,381.74,61.6,372.77,52.2ZM194.94,25.28c-17.67,7.83-31.49,16.88-41.08,26.92-9,9.4-13.8,19.24-14.36,29.3H261.31V6C236.71,10.26,214.16,16.77,194.94,25.28ZM391.14,85.5c-1.75,34.56-48.77,64.18-115.84,77.69A430.28,430.28,0,0,0,333.06,167c52.24,0,101.29-9,138.12-25.29,17.67-7.82,31.49-16.88,41.08-26.92,9-9.39,13.8-19.23,14.36-29.29Zm-125.83,0V161c24.6-4.28,47.16-10.8,66.38-19.31,17.67-7.82,31.49-16.88,41.08-26.92,9-9.39,13.8-19.23,14.36-29.29Zm-125.81,0c.56,10.06,5.39,19.9,14.36,29.29,9.59,10,23.41,19.1,41.08,26.92,19.22,8.51,41.77,15,66.37,19.31V85.5ZM372.77,52.2c-9.59-10-23.41-19.09-41.08-26.92-19.22-8.51-41.78-15-66.38-19.3V81.5H387.13C386.57,71.44,381.74,61.6,372.77,52.2ZM265.31,85.5V161c24.6-4.28,47.16-10.8,66.38-19.31,17.67-7.82,31.49-16.88,41.08-26.92,9-9.39,13.8-19.23,14.36-29.29Z"/><path class="cls-1" d="M265.31,85.5H387.13c-.56,10.06-5.39,19.9-14.36,29.29-9.59,10-23.41,19.1-41.08,26.92-19.22,8.51-41.78,15-66.38,19.31Z"/><path class="cls-1" d="M251.33,163.19A430.28,430.28,0,0,1,193.57,167c-52.24,0-101.3-9-138.12-25.29C37.78,133.89,24,124.83,14.37,114.79,5.4,105.4.56,95.56,0,85.5H135.49C137.24,120.06,184.26,149.68,251.33,163.19Z"/><path class="cls-1" d="M135.49,81.5H0C.56,71.44,5.4,61.6,14.37,52.2c9.59-10,23.41-19.09,41.08-26.92C92.27,9,141.33,0,193.57,0a430.28,430.28,0,0,1,57.76,3.81C184.26,17.32,137.24,46.93,135.49,81.5Z"/><path class="cls-1" d="M139.5,85.5H261.31V161c-24.6-4.28-47.15-10.8-66.37-19.31-17.67-7.82-31.49-16.88-41.08-26.92C144.89,105.4,140.06,95.56,139.5,85.5Z"/><path class="cls-1" d="M194.94,25.28c19.22-8.51,41.77-15,66.37-19.3V81.5H139.5c.56-10.06,5.39-19.9,14.36-29.3C163.45,42.16,177.27,33.11,194.94,25.28Z"/><path class="cls-1" d="M265.31,81.5V6c24.6,4.28,47.16,10.79,66.38,19.3,17.67,7.83,31.49,16.88,41.08,26.92,9,9.4,13.8,19.24,14.36,29.3Z"/><path class="cls-1" d="M265.31,85.5H387.13c-.56,10.06-5.39,19.9-14.36,29.29-9.59,10-23.41,19.1-41.08,26.92-19.22,8.51-41.78,15-66.38,19.31Z"/><path class="cls-1" d="M251.33,163.19A430.28,430.28,0,0,1,193.57,167c-52.24,0-101.3-9-138.12-25.29C37.78,133.89,24,124.83,14.37,114.79,5.4,105.4.56,95.56,0,85.5H135.49C137.24,120.06,184.26,149.68,251.33,163.19Z"/><path class="cls-1" d="M135.49,81.5H0C.56,71.44,5.4,61.6,14.37,52.2c9.59-10,23.41-19.09,41.08-26.92C92.27,9,141.33,0,193.57,0a430.28,430.28,0,0,1,57.76,3.81C184.26,17.32,137.24,46.93,135.49,81.5Z"/><path class="cls-1" d="M139.5,85.5H261.31V161c-24.6-4.28-47.15-10.8-66.37-19.31-17.67-7.82-31.49-16.88-41.08-26.92C144.89,105.4,140.06,95.56,139.5,85.5Z"/><path class="cls-1" d="M194.94,25.28c19.22-8.51,41.77-15,66.37-19.3V81.5H139.5c.56-10.06,5.39-19.9,14.36-29.3C163.45,42.16,177.27,33.11,194.94,25.28Z"/><path class="cls-1" d="M265.31,81.5V6c24.6,4.28,47.16,10.79,66.38,19.3,17.67,7.83,31.49,16.88,41.08,26.92,9,9.4,13.8,19.24,14.36,29.3Z"/><path class="cls-1" d="M265.31,85.5V161c24.6-4.28,47.16-10.8,66.38-19.31,17.67-7.82,31.49-16.88,41.08-26.92,9-9.39,13.8-19.23,14.36-29.29Zm-125.81,0c.56,10.06,5.39,19.9,14.36,29.29,9.59,10,23.41,19.1,41.08,26.92,19.22,8.51,41.77,15,66.37,19.31V85.5ZM372.77,52.2c-9.59-10-23.41-19.09-41.08-26.92-19.22-8.51-41.78-15-66.38-19.3V81.5H387.13C386.57,71.44,381.74,61.6,372.77,52.2Zm139.49,0c-9.59-10-23.41-19.09-41.08-26.92C434.35,9,385.3,0,333.06,0A430.28,430.28,0,0,0,275.3,3.81C342.37,17.32,389.39,46.93,391.14,81.5H526.62C526.06,71.44,521.23,61.6,512.26,52.2ZM139.5,85.5c.56,10.06,5.39,19.9,14.36,29.29,9.59,10,23.41,19.1,41.08,26.92,19.22,8.51,41.77,15,66.37,19.31V85.5ZM372.77,52.2c-9.59-10-23.41-19.09-41.08-26.92-19.22-8.51-41.78-15-66.38-19.3V81.5H387.13C386.57,71.44,381.74,61.6,372.77,52.2ZM194.94,25.28c-17.67,7.83-31.49,16.88-41.08,26.92-9,9.4-13.8,19.24-14.36,29.3H261.31V6C236.71,10.26,214.16,16.77,194.94,25.28ZM391.14,85.5c-1.75,34.56-48.77,64.18-115.84,77.69A430.28,430.28,0,0,0,333.06,167c52.24,0,101.29-9,138.12-25.29,17.67-7.82,31.49-16.88,41.08-26.92,9-9.39,13.8-19.23,14.36-29.29Zm-125.83,0V161c24.6-4.28,47.16-10.8,66.38-19.31,17.67-7.82,31.49-16.88,41.08-26.92,9-9.39,13.8-19.23,14.36-29.29Zm-125.81,0c.56,10.06,5.39,19.9,14.36,29.29,9.59,10,23.41,19.1,41.08,26.92,19.22,8.51,41.77,15,66.37,19.31V85.5ZM372.77,52.2c-9.59-10-23.41-19.09-41.08-26.92-19.22-8.51-41.78-15-66.38-19.3V81.5H387.13C386.57,71.44,381.74,61.6,372.77,52.2ZM265.31,85.5V161c24.6-4.28,47.16-10.8,66.38-19.31,17.67-7.82,31.49-16.88,41.08-26.92,9-9.39,13.8-19.23,14.36-29.29Z"/></g></g></svg>