<svg xmlns="http://www.w3.org/2000/svg" viewBox="0 0 175 175"><defs><style>.cls-1{fill:#1d1d1b;}</style></defs><g id="Calque_2" data-name="Calque 2"><g id="Calque_1-2" data-name="Calque 1"><path class="cls-1" d="M159.4,106.73a183,183,0,0,0-65-14.49l45.8,32a3,3,0,0,1,1.12,1.84,148.68,148.68,0,0,1,.41,31.88,159.67,159.67,0,0,0-7.92-14.77,166.4,166.4,0,0,0-43.69-48l17.24,51.38a2.42,2.42,0,0,1-.23,2.12A162.36,162.36,0,0,1,87.62,175a153.07,153.07,0,0,0,2.81-16.61A157,157,0,0,0,84.8,95.14L66.91,146.41A2.74,2.74,0,0,1,65.45,148a172.84,172.84,0,0,1-31.9,10.31A152.2,152.2,0,0,0,46,146.52,164.34,164.34,0,0,0,80.64,92.13L34.37,123.67a2.71,2.71,0,0,1-2.17.45A173.46,173.46,0,0,1,0,114.64,171.59,171.59,0,0,0,17.42,112,178.26,178.26,0,0,0,78.94,87.39l-56.83-.28a2.62,2.62,0,0,1-2-.89A160,160,0,0,1,0,60.69c5,2.73,10.2,5.24,15.6,7.53A182.73,182.73,0,0,0,80.76,82.71L38.12,53a11.13,11.13,0,0,1-4.81-8,156.29,156.29,0,0,1-.06-28.2,148.32,148.32,0,0,0,8,14.93,168,168,0,0,0,43.69,48L67.68,28.26a2.34,2.34,0,0,1,.23-2.07A161,161,0,0,1,87.38,0a127.62,127.62,0,0,0-2.81,16.55A157.05,157.05,0,0,0,90.2,79.81l16.59-47.65a11.3,11.3,0,0,1,6.46-6.8,168.93,168.93,0,0,1,28.2-8.75A152.08,152.08,0,0,0,129,28.42c-16,16.95-27.39,35.28-34.6,54.29l46.21-31.44a2.71,2.71,0,0,1,2.17-.44,175.38,175.38,0,0,1,32,9.42c-5.74.61-11.49,1.45-17.24,2.62A178.24,178.24,0,0,0,96.18,87.5l56.71.33a2.91,2.91,0,0,1,2,.84A155.35,155.35,0,0,1,175,114.31,157.3,157.3,0,0,0,159.4,106.73Z"/></g></g></svg>