<svg xmlns="http://www.w3.org/2000/svg" xmlns:xlink="http://www.w3.org/1999/xlink" viewBox="0 0 176.59 176.59"><defs><style>.cls-1{fill:none;}.cls-2{clip-path:url(#clip-path);}.cls-3{stroke:#000;stroke-miterlimit:10;}.cls-4{clip-path:url(#clip-path-2);}</style><clipPath id="clip-path" transform="translate(0.8 0.79)"><path class="cls-1" d="M44.35,163.6a67.81,67.81,0,0,0,43,7.93,67.81,67.81,0,0,1-43-7.93,90.64,90.64,0,0,1-7.74-4.95,85.49,85.49,0,0,1-10.76-9.08c-1.56-1.64-3.65-3.82-5.12-5.53-1.28-1.5-2.9-3.57-4.06-5.17a84.11,84.11,0,0,1-7.36-12.06,87.15,87.15,0,0,1-8.2-25.33A104.58,104.58,0,0,1,0,87.34,87,87,0,0,1,1.27,72.59a84.6,84.6,0,0,1,3.63-14c.75-2.15,1.9-5,2.82-7,.82-1.85,2.1-4.21,3-6a71.46,71.46,0,0,1,4-6.59c1.09-1.65,2.7-3.73,3.86-5.33a74.85,74.85,0,0,1,5.27-6.12A87.91,87.91,0,0,1,45.25,10.88a72.14,72.14,0,0,1,9-4.34A90,90,0,0,1,66.84,2.48a87.37,87.37,0,0,1,48.87,2.19A88.51,88.51,0,0,1,126.16,9a85.3,85.3,0,0,1,11.24,6.64,88.32,88.32,0,0,1,10.53,8.6,87.19,87.19,0,0,1,16.84,22.2,115.66,115.66,0,0,1,5.41,12.4,87.5,87.5,0,0,1,4.52,21.63,84.66,84.66,0,0,1,.26,8.72c-.12,2.14-.21,5-.43,7.12a72.84,72.84,0,0,1-1.11,7.64c-1.54,6.81-2,8.86-3.93,14a86.38,86.38,0,0,1-6.22,13.19c-2,3.39-5.06,7.72-7.44,10.88-1.46,1.95-3.73,4.29-5.36,6.1a57.7,57.7,0,0,1-4.57,4.41c-2,1.77-4.87,4-7,5.67a60.53,60.53,0,0,1-5.84,3.9c-2.6,1.53-6.16,3.43-8.88,4.75a85,85,0,0,1-13,4.79,87.46,87.46,0,0,1-51.93-1.39c-1.82-.6-4.22-1.5-6-2.29C50.57,166.8,47,165,44.35,163.6Z"/></clipPath><clipPath id="clip-path-2" transform="translate(0.8 0.79)"><path class="cls-1" d="M99.15,174.21a87,87,0,0,1-29.33-1,84.41,84.41,0,0,1-13.49-3.93c-1.59-.6-3.68-1.47-5.21-2.19-2.06-1-4.77-2.37-6.77-3.47C23,151.46,8.9,127.47,9,98.05,9,51.65,44.28,9.29,87.64,3.46,44.28,9.29,9,51.65,9,98.05c-.06,29.42,14,53.41,35.39,65.55-1.5-.92-3.54-2.06-5-3-2.3-1.59-5.31-3.79-7.49-5.53a109.09,109.09,0,0,1-9.21-8.78,58.59,58.59,0,0,1-5.32-6.45c-4.23-6.09-5.81-8.37-7.66-12.24-1-2-2.31-4.78-3.18-6.88-.78-1.89-1.71-4.46-2.34-6.41A83.49,83.49,0,0,1,.9,100.08,86.16,86.16,0,0,1,0,87.34,119.47,119.47,0,0,1,1.17,73.21,87.24,87.24,0,0,1,7.39,52.26c4-8.17,4-8.17,6.75-12.44a83.12,83.12,0,0,1,8.61-11.15A88.12,88.12,0,0,1,44.61,11.24a101.82,101.82,0,0,1,9.68-4.7A88.94,88.94,0,0,1,67.13,2.41,86.59,86.59,0,0,1,92,.11a87,87,0,0,1,31.91,7.81c2,1,4.78,2.36,6.77,3.47,1.55.86,3.59,2.07,5,3.09s3.47,2.36,4.88,3.47c1.94,1.52,4.48,3.61,6.29,5.28a87.77,87.77,0,0,1,17.57,22.55,119.76,119.76,0,0,1,5.52,12.35,88.54,88.54,0,0,1,4.72,21.72c.44,6,.44,6,0,14.92a58,58,0,0,1-1.12,8.51,87.41,87.41,0,0,1-3.78,14,85,85,0,0,1-6,13c-2,3.43-5,7.8-7.31,11-1.33,1.82-3.35,4.06-4.87,5.72a88.74,88.74,0,0,1-15.15,13A87.42,87.42,0,0,1,99.15,174.21Z"/></clipPath></defs><g id="Calque_2" data-name="Calque 2"><g id="Calque_1-2" data-name="Calque 1"><g class="cls-2"><path class="cls-3" d="M87.33,171.53l0-.29a73.55,73.55,0,0,1-9.85.67C39,171.9,9.26,140.82,9.25,98.22v-.17H9l-.15.25c15.38,8.73,46.73,13.77,79.28,13.78A287,287,0,0,0,126,109.65l0-.29h-.3c0,19.51-3.12,35.73-8.25,47s-12.27,17.67-20.39,17.67a19.43,19.43,0,0,1-9.58-2.78l-.09-.05h-.1l0,.29-.14.26a19.92,19.92,0,0,0,9.87,2.86c8.46,0,15.75-6.61,20.92-18s8.27-27.7,8.31-47.28V109l-.33,0a287.64,287.64,0,0,1-37.87,2.42c-32.48,0-63.81-5.07-79-13.7l-.43-.24v.67c0,21.44,7.49,40,19.83,53.22a66.22,66.22,0,0,0,49,21.06,73.12,73.12,0,0,0,9.93-.68l0-.29-.14.26Z" transform="translate(0.8 0.79)"/><path class="cls-3" d="M47.57,165.64c7.81,4.43,23.64,7,40.09,7a145.84,145.84,0,0,0,19.17-1.22l-.08-.58A146.24,146.24,0,0,1,87.66,172c-16.38,0-32.19-2.57-39.8-6.9l-.29.51Z" transform="translate(0.8 0.79)"/><path class="cls-3" d="M19.45,139.28c13.29,7.54,40.36,11.9,68.48,11.9a248.85,248.85,0,0,0,32.77-2.09l-.08-.58a249.25,249.25,0,0,1-32.69,2.08c-28,0-55.09-4.37-68.18-11.82l-.29.51Z" transform="translate(0.8 0.79)"/><path class="cls-3" d="M87.22,171.26A29.1,29.1,0,0,1,76,173.64c-10.46,0-19.59-6.54-26.14-18s-10.47-28-10.47-47.67v-.27h-.59v.28c0,19.79,3.93,36.34,10.54,48S65.29,174.23,76,174.23a29.61,29.61,0,0,0,11.43-2.43l-.22-.54Z" transform="translate(0.8 0.79)"/><path class="cls-3" d="M87.05,171.46a14,14,0,0,1-.88,2.53c-.28.55-.54.71-.61.69l-.25-.17c-.5-.57-1.08-2.55-1.55-5.65-1.44-9.32-2.37-29-2.37-55.07,0-.69,0-1.38,0-2.08h-.59c0,.69,0,1.39,0,2.08,0,18.58.47,33.88,1.26,44.54a119.3,119.3,0,0,0,1.42,12.36,18.06,18.06,0,0,0,.87,3.29,3.64,3.64,0,0,0,.51.91,1,1,0,0,0,.7.38c.5,0,.82-.42,1.13-1a14.39,14.39,0,0,0,.93-2.65l-.57-.15Z" transform="translate(0.8 0.79)"/><path class="cls-3" d="M87.33,171.53l-.14.26a19.92,19.92,0,0,0,9.87,2.86c8.46,0,15.75-6.61,20.92-18s8.27-27.7,8.31-47.28H126l0,.29c15.52-2.08,27.78-5.28,36.19-9.09s13-8.24,13.05-12.94c0-3.77-3-7.48-9.1-11l-.44-.25v.5c-.08,46.28-35.24,88.52-78.44,94.32l-.86.12.76.43.14-.26,0,.29c43.53-5.86,78.85-48.33,78.94-94.9H166l-.14.26c6,3.43,8.81,7,8.8,10.44,0,4.27-4.35,8.63-12.7,12.41s-20.55,7-36,9l-.26,0v.25c0,19.51-3.12,35.73-8.25,47s-12.27,17.67-20.39,17.67a19.43,19.43,0,0,1-9.58-2.78l-.15.25,0,.29Z" transform="translate(0.8 0.79)"/><path class="cls-3" d="M106.83,171.39c7.83-1,14-2.67,18.3-4.6s6.65-4.18,6.67-6.67c0-2-1.57-3.89-4.67-5.65l-.29.51c3,1.73,4.38,3.51,4.37,5.14,0,2-2.12,4.24-6.32,6.13s-10.34,3.51-18.14,4.56l.08.58Z" transform="translate(0.8 0.79)"/><path class="cls-3" d="M120.7,149.09c13.39-1.8,24-4.56,31.26-7.86s11.26-7.12,11.28-11.21c0-3.28-2.6-6.49-7.88-9.49l-.29.51c5.22,3,7.59,6,7.58,9,0,3.66-3.73,7.42-10.94,10.68s-17.73,6-31.09,7.8l.08.59Z" transform="translate(0.8 0.79)"/><path class="cls-3" d="M87.28,171.82A63.67,63.67,0,0,0,99,172.93c34.89,0,61.57-29.94,61.64-71.88h-.59c-.09,41.7-26.53,71.28-61.05,71.29a63.34,63.34,0,0,1-11.64-1.1l-.11.58Z" transform="translate(0.8 0.79)"/><path class="cls-3" d="M87.32,171.83l2,0c47.4,0,85.58-36.51,85.67-82.44h-.59c-.09,45.59-38,81.85-85.08,81.85l-2,0v.59Z" transform="translate(0.8 0.79)"/><path class="cls-3" d="M87.33,171.53l0,.29c43.53-5.86,78.85-48.33,78.94-94.9v-.17l-.14-.08c-15.38-8.73-46.73-13.77-79.29-13.78a288.7,288.7,0,0,0-37.94,2.42l-.25,0V66c0,46.39,17.11,93.64,38.51,105.84l.08.05.1,0,0-.29.15-.25C66.45,159.37,49.25,112.19,49.27,66v-.34H49l0,.29a287.37,287.37,0,0,1,37.86-2.42c32.49,0,63.82,5.07,79,13.7l.14-.26h-.29c-.08,46.28-35.24,88.52-78.44,94.32l0,.29.15-.25Z" transform="translate(0.8 0.79)"/><path class="cls-3" d="M127.13,154.47c-7.81-4.43-23.64-7-40.08-7a145.62,145.62,0,0,0-19.17,1.22l.08.59a144.29,144.29,0,0,1,19.09-1.22c16.37,0,32.18,2.56,39.79,6.89l.29-.51Z" transform="translate(0.8 0.79)"/><path class="cls-3" d="M155.36,120.53c-13.29-7.54-40.36-11.9-68.47-11.9a248.63,248.63,0,0,0-32.77,2.09l.08.59a247.42,247.42,0,0,1,32.69-2.09c28,0,55.09,4.38,68.18,11.82l.29-.51Z" transform="translate(0.8 0.79)"/><path class="cls-3" d="M87.44,171.8c26.91-11.24,48.61-58,48.72-104.48h-.59c-.07,46.34-21.83,92.92-48.35,103.94l.23.54Z" transform="translate(0.8 0.79)"/><path class="cls-3" d="M87.62,171.61c3.54-13.46,6.46-61.9,6.55-108.35h-.59c-.08,46.4-3,94.9-6.53,108.2l.57.15Z" transform="translate(0.8 0.79)"/><path class="cls-3" d="M87.33,171.53l.15-.25C66.45,159.37,49.25,112.19,49.27,66v-.68l-.34,0c-15.51,2.09-27.78,5.28-36.19,9.1s-13,8.23-13,12.94c0,3.77,3,7.48,9.1,11L9,98.05h-.3v.18c0,21.44,7.49,40,19.83,53.22a66.22,66.22,0,0,0,49,21.06,73.23,73.23,0,0,0,9.93-.68l.87-.11-.76-.43-.15.25,0-.29a73.67,73.67,0,0,1-9.85.67C39,171.9,9.26,140.82,9.25,98.22v-.35l-.15-.08c-6-3.43-8.81-7-8.81-10.44,0-4.27,4.36-8.63,12.7-12.41s20.56-7,36-9l0-.29h-.29V66c0,46.39,17.11,93.64,38.51,105.84l.14-.26,0-.29Z" transform="translate(0.8 0.79)"/><path class="cls-3" d="M67.88,148.72c-7.84,1.06-14,2.67-18.31,4.6s-6.64,4.19-6.66,6.67c0,2,1.56,3.89,4.66,5.65l.29-.51c-3-1.72-4.38-3.5-4.37-5.14,0-2.05,2.13-4.23,6.33-6.13s10.34-3.5,18.14-4.55l-.08-.59Z" transform="translate(0.8 0.79)"/><path class="cls-3" d="M54.12,110.72c-13.4,1.8-24,4.56-31.26,7.86S11.6,125.7,11.57,129.79c0,3.28,2.61,6.49,7.88,9.49l.3-.51c-5.22-3-7.6-6.05-7.59-9,0-3.66,3.74-7.42,10.94-10.68s17.74-6,31.1-7.8l-.08-.59Z" transform="translate(0.8 0.79)"/><path class="cls-3" d="M87.39,171.24c-40-7.43-72.5-50.91-72.5-97.13v-.18l-.58,0v.2c0,46.48,32.6,90.19,73,97.71l.11-.58Z" transform="translate(0.8 0.79)"/><path class="cls-3" d="M87.34,171.24C39.37,170.18.53,131.9.53,85.71v-.14l-.59,0v.16c0,46.53,39.1,85.05,87.37,86.12l0-.59Z" transform="translate(0.8 0.79)"/><path class="cls-3" d="M9,98.05h.29c.08-46.26,35.23-88.5,78.43-94.3l0-.29-.14.25c21,11.91,38.22,59.09,38.2,105.3v.36h.3l0-.29a287.64,287.64,0,0,1-37.87,2.42c-32.48,0-63.81-5.07-79-13.7L9,98.05H9l-.15.25c15.37,8.73,46.72,13.77,79.28,13.78A287,287,0,0,0,126,109.65l.26,0V109c0-46.36-17.11-93.61-38.5-105.81l-.09-.05h-.1C44.07,9,8.75,51.5,8.66,98v.18l.15.08Z" transform="translate(0.8 0.79)"/><path class="cls-3" d="M19.61,54.45C32.9,62,60,66.35,88.09,66.35a248.85,248.85,0,0,0,32.77-2.09l-.08-.58a249.25,249.25,0,0,1-32.69,2.08C60,65.77,33,61.39,19.9,53.94l-.29.51Z" transform="translate(0.8 0.79)"/><path class="cls-3" d="M47.84,20.52c7.81,4.42,23.64,7,40.09,7a145.83,145.83,0,0,0,19.17-1.23l-.08-.58A144.51,144.51,0,0,1,87.93,26.9c-16.38,0-32.19-2.56-39.8-6.9l-.29.52Z" transform="translate(0.8 0.79)"/><path class="cls-3" d="M39.41,107.65c.07-46.32,21.83-92.9,48.35-103.92l-.23-.54c-26.91,11.24-48.61,58-48.71,104.46Z" transform="translate(0.8 0.79)"/><path class="cls-3" d="M81.4,111.71c.08-46.38,3-94.88,6.53-108.18l-.57-.15c-3.54,13.46-6.46,61.9-6.55,108.33Z" transform="translate(0.8 0.79)"/><path class="cls-3" d="M126,109.36h.29V109c0-46.36-17.11-93.61-38.5-105.81l-.15.26,0,.29a73.78,73.78,0,0,1,9.85-.67c38.47,0,68.19,31.08,68.19,73.67v.35l.15.08c6,3.43,8.81,7,8.8,10.44,0,4.27-4.35,8.63-12.7,12.41s-20.55,7-36,9l0,.29h0l0,.29c15.52-2.08,27.78-5.28,36.19-9.09s13-8.24,13.05-12.94c0-3.77-3-7.48-9.1-11l-.15.25h.29v-.17c0-21.43-7.49-40-19.83-53.2A66.22,66.22,0,0,0,97.53,2.49a75,75,0,0,0-9.93.67l-.86.12.76.43c21,11.91,38.22,59.09,38.2,105.3v.69l.33,0Z" transform="translate(0.8 0.79)"/><path class="cls-3" d="M120.86,64.26c13.39-1.8,24-4.56,31.25-7.85s11.27-7.12,11.29-11.22c0-3.27-2.6-6.49-7.88-9.49l-.29.51c5.21,3,7.59,6.06,7.58,9,0,3.66-3.74,7.42-10.94,10.68s-17.74,6-31.09,7.81l.08.58Z" transform="translate(0.8 0.79)"/><path class="cls-3" d="M107.1,26.26c7.83-1.05,14-2.66,18.3-4.6s6.65-4.18,6.67-6.66c0-2-1.57-3.89-4.67-5.66l-.29.52c3,1.72,4.38,3.5,4.37,5.14,0,2-2.12,4.23-6.32,6.13s-10.34,3.5-18.14,4.55l.08.58Z" transform="translate(0.8 0.79)"/><path class="cls-3" d="M160.67,101.05v-.19c0-46.46-32.61-90.17-73-97.69l-.11.58c40,7.43,72.5,50.91,72.49,97.11v.19Z" transform="translate(0.8 0.79)"/><path class="cls-3" d="M175,89.41v-.16c0-46.5-39.1-85-87.38-86.09v.59c48,1.06,86.8,39.34,86.8,85.5v.16Z" transform="translate(0.8 0.79)"/><path class="cls-3" d="M166,76.92h.29v-.17c0-21.43-7.48-40-19.83-53.2A66.22,66.22,0,0,0,97.53,2.49a75,75,0,0,0-9.93.67l0,.3.15-.26A20,20,0,0,0,77.91.34c-8.46,0-15.75,6.6-20.92,18S48.72,46,48.69,65.6v.34l.34,0a287.37,287.37,0,0,1,37.86-2.42c32.49,0,63.82,5.07,79,13.7l.43.25v-.51H166l.15-.25c-15.38-8.73-46.73-13.78-79.29-13.78a288.7,288.7,0,0,0-37.94,2.42l0,.3h.29c0-19.51,3.13-35.71,8.25-47S69.8.92,77.91.93A19.39,19.39,0,0,1,87.5,3.71l.08,0h.1a73.67,73.67,0,0,1,9.85-.67c38.47,0,68.19,31.08,68.2,73.67v.17H166l.15-.25Z" transform="translate(0.8 0.79)"/><path class="cls-3" d="M155.52,35.7c-13.29-7.54-40.36-11.89-68.47-11.9a248.63,248.63,0,0,0-32.77,2.09l.08.59a247.31,247.31,0,0,1,32.69-2.09c28,0,55.09,4.38,68.18,11.82l.29-.51Z" transform="translate(0.8 0.79)"/><path class="cls-3" d="M127.4,9.34c-7.81-4.42-23.64-7-40.08-7A145.61,145.61,0,0,0,68.15,3.6l.08.58A144.29,144.29,0,0,1,87.32,3c16.37,0,32.18,2.56,39.79,6.9l.29-.52Z" transform="translate(0.8 0.79)"/><path class="cls-3" d="M136.16,67.32v-.27c0-19.78-3.94-36.32-10.55-47.95S109.69.76,99,.76A29.78,29.78,0,0,0,87.53,3.18l.23.55A29,29,0,0,1,99,1.35c10.46,0,19.59,6.54,26.14,18s10.47,28,10.47,47.66v.27Z" transform="translate(0.8 0.79)"/><path class="cls-3" d="M94.17,63.26V61.18c0-18.57-.47-33.87-1.26-44.53A117.23,117.23,0,0,0,91.49,4.29,18.15,18.15,0,0,0,90.62,1,3.47,3.47,0,0,0,90.11.1a.92.92,0,0,0-.7-.38c-.5,0-.81.42-1.13,1a13.53,13.53,0,0,0-.92,2.65l.57.15A12.62,12.62,0,0,1,88.81,1c.27-.56.54-.72.6-.69l.25.17c.5.57,1.08,2.55,1.55,5.65,1.45,9.32,2.37,29,2.37,55.05v2.08Z" transform="translate(0.8 0.79)"/><path class="cls-3" d="M49,65.61h.29c0-19.51,3.13-35.71,8.26-47S69.8.92,77.91.93A19.39,19.39,0,0,1,87.5,3.71l.14-.25,0-.3C44.07,9,8.75,51.5,8.66,98H9l.14-.26c-6-3.43-8.81-7-8.81-10.44,0-4.27,4.36-8.63,12.7-12.41s20.56-7,36-9l.25,0v-.25H49l0-.3c-15.51,2.09-27.78,5.28-36.19,9.1s-13,8.23-13,12.94c0,3.77,3,7.48,9.1,11l.44.25v-.5c.08-46.26,35.23-88.5,78.43-94.3l.87-.12-.76-.43A20,20,0,0,0,77.91.34c-8.46,0-15.75,6.6-20.92,18S48.72,46,48.69,65.6H49l0-.3Z" transform="translate(0.8 0.79)"/><path class="cls-3" d="M54.28,25.89c-13.4,1.81-24,4.57-31.26,7.86S11.75,40.87,11.73,45c0,3.28,2.6,6.49,7.88,9.49l.29-.51c-5.21-3-7.59-6-7.58-9,0-3.65,3.74-7.42,10.94-10.68s17.74-6,31.1-7.8l-.08-.59Z" transform="translate(0.8 0.79)"/><path class="cls-3" d="M68.15,3.6c-7.84,1.05-14,2.67-18.31,4.6s-6.64,4.18-6.66,6.66c0,2,1.56,3.89,4.66,5.66l.29-.52c-3-1.72-4.38-3.5-4.37-5.14,0-2,2.13-4.23,6.33-6.13s10.34-3.5,18.14-4.55l-.08-.58Z" transform="translate(0.8 0.79)"/><path class="cls-3" d="M14.89,73.92C15,32.23,41.43,2.65,75.94,2.65a63.53,63.53,0,0,1,11.65,1.1l.11-.58A63.77,63.77,0,0,0,75.94,2.06C41.06,2.06,14.37,32,14.31,73.92h.58Z" transform="translate(0.8 0.79)"/><path class="cls-3" d="M.54,85.56C.62,40,38.52,3.73,85.61,3.73l2,0V3.16l-2,0C38.22,3.14,0,39.65,0,85.56Z" transform="translate(0.8 0.79)"/><path class="cls-3" d="M44.35,163.6l-.15.26a67,67,0,0,0,33.24,8.64,73.12,73.12,0,0,0,9.93-.68l-.08-.58a73.55,73.55,0,0,1-9.85.67,66.25,66.25,0,0,1-32.95-8.57l-.14.26.15-.25a90.13,90.13,0,0,1-7.71-4.93,85.28,85.28,0,0,1-10.73-9.06c-1.56-1.63-3.64-3.81-5.1-5.52-1.28-1.48-2.9-3.55-4.05-5.14a83.84,83.84,0,0,1-7.33-12,86,86,0,0,1-8.17-25.24A104.13,104.13,0,0,1,.29,87.62v-.27A86.65,86.65,0,0,1,1.56,72.63a83.81,83.81,0,0,1,3.62-14c.75-2.14,1.89-5,2.81-7,.82-1.83,2.09-4.2,3-6a72.52,72.52,0,0,1,4-6.56c1.08-1.63,2.69-3.72,3.86-5.32a73.4,73.4,0,0,1,5.25-6.09A84.86,84.86,0,0,1,35.47,17.54a86,86,0,0,1,9.93-6.4,70.9,70.9,0,0,1,9-4.33,88.68,88.68,0,0,1,12.51-4A85.48,85.48,0,0,1,87.4.29c1.68,0,3.2.05,4.54.11A87.28,87.28,0,0,1,115.61,5,86.34,86.34,0,0,1,126,9.28a85.11,85.11,0,0,1,11.2,6.62,87.87,87.87,0,0,1,10.5,8.57A86.38,86.38,0,0,1,157,34.82a85.07,85.07,0,0,1,7.54,11.78A118.17,118.17,0,0,1,169.91,59,87.51,87.51,0,0,1,174.4,80.5c.13,2,.31,4.64.31,6.91,0,.63,0,1.23-.05,1.79-.11,2.14-.2,5-.42,7.1a71.34,71.34,0,0,1-1.11,7.6c-1.54,6.82-2,8.84-3.92,14A85.94,85.94,0,0,1,163,131.06c-2,3.37-5.05,7.7-7.42,10.85-1.45,1.93-3.71,4.27-5.34,6.08a60.87,60.87,0,0,1-4.55,4.39c-2,1.76-4.87,4-7,5.66a61,61,0,0,1-5.8,3.88c-2.6,1.52-6.16,3.42-8.87,4.74a84.94,84.94,0,0,1-12.92,4.76,87.74,87.74,0,0,1-23.73,3.27,86.29,86.29,0,0,1-10.45-.63,87.46,87.46,0,0,1-17.58-4c-1.81-.6-4.2-1.49-5.94-2.28-2.72-1.22-6.29-3-8.94-4.42l-.28.52.15-.26-.14.26c2.65,1.41,6.23,3.21,9,4.44,1.76.79,4.17,1.69,6,2.3a89,89,0,0,0,17.69,4.05,87.41,87.41,0,0,0,10.52.63A88.52,88.52,0,0,0,111.28,172a87.35,87.35,0,0,0,13-4.8c2.73-1.33,6.29-3.23,8.9-4.77a58.76,58.76,0,0,0,5.87-3.92c2.14-1.66,5-3.9,7-5.68a58.22,58.22,0,0,0,4.59-4.44c1.63-1.8,3.89-4.14,5.38-6.11,2.38-3.17,5.41-7.5,7.45-10.91a86.2,86.2,0,0,0,6.24-13.24c1.94-5.19,2.41-7.28,4-14.09a74.18,74.18,0,0,0,1.11-7.67c.23-2.15.31-5,.43-7.13,0-.57,0-1.18,0-1.82,0-2.3-.17-4.89-.3-6.94a87.84,87.84,0,0,0-4.53-21.72A118.06,118.06,0,0,0,165,46.32a86.32,86.32,0,0,0-7.59-11.86,87.52,87.52,0,0,0-9.3-10.41,90.4,90.4,0,0,0-10.56-8.63,86.73,86.73,0,0,0-11.29-6.67A87.52,87.52,0,0,0,92-.19c-1.35-.06-2.88-.1-4.57-.1A86.14,86.14,0,0,0,66.77,2.2,89.73,89.73,0,0,0,54.19,6.26a71,71,0,0,0-9.09,4.37,87.3,87.3,0,0,0-10,6.44,85.16,85.16,0,0,0-11.46,10.2,74.24,74.24,0,0,0-5.3,6.15c-1.16,1.59-2.77,3.67-3.87,5.34a73.81,73.81,0,0,0-4,6.62c-.9,1.8-2.18,4.17-3,6-.93,2.09-2.07,4.91-2.83,7.07A84.45,84.45,0,0,0,1,72.54,87.45,87.45,0,0,0-.29,87.34v.28A105.48,105.48,0,0,0,.82,101.53a87.32,87.32,0,0,0,8.23,25.41,83.35,83.35,0,0,0,7.39,12.11c1.16,1.6,2.78,3.67,4.07,5.18,1.48,1.72,3.57,3.9,5.13,5.54a85.76,85.76,0,0,0,10.79,9.12,89.49,89.49,0,0,0,7.77,5h0a67,67,0,0,0,33.24,8.64,73.12,73.12,0,0,0,9.93-.68l-.08-.58a73.55,73.55,0,0,1-9.85.67,66.25,66.25,0,0,1-32.95-8.57l-.14.26-.14.26Z" transform="translate(0.8 0.79)"/></g><g class="cls-4"><path class="cls-3" d="M87.33,171.53l0-.29a73.55,73.55,0,0,1-9.85.67C39,171.9,9.26,140.82,9.25,98.22v-.17H9l-.15.25c15.38,8.73,46.73,13.77,79.28,13.78A287,287,0,0,0,126,109.65l0-.29h-.3c0,19.51-3.12,35.73-8.25,47s-12.27,17.67-20.39,17.67a19.43,19.43,0,0,1-9.58-2.78l-.09-.05h-.1l0,.29-.14.26a19.92,19.92,0,0,0,9.87,2.86c8.46,0,15.75-6.61,20.92-18s8.27-27.7,8.31-47.28V109l-.33,0a287.64,287.64,0,0,1-37.87,2.42c-32.48,0-63.81-5.07-79-13.7l-.43-.24v.67c0,21.44,7.49,40,19.83,53.22a66.22,66.22,0,0,0,49,21.06,73.12,73.12,0,0,0,9.93-.68l0-.29-.14.26Z" transform="translate(0.8 0.79)"/><path class="cls-3" d="M47.57,165.64c7.81,4.43,23.64,7,40.09,7a145.84,145.84,0,0,0,19.17-1.22l-.08-.58A146.24,146.24,0,0,1,87.66,172c-16.38,0-32.19-2.57-39.8-6.9l-.29.51Z" transform="translate(0.8 0.79)"/><path class="cls-3" d="M19.45,139.28c13.29,7.54,40.36,11.9,68.48,11.9a248.85,248.85,0,0,0,32.77-2.09l-.08-.58a249.25,249.25,0,0,1-32.69,2.08c-28,0-55.09-4.37-68.18-11.82l-.29.51Z" transform="translate(0.8 0.79)"/><path class="cls-3" d="M87.22,171.26A29.1,29.1,0,0,1,76,173.64c-10.46,0-19.59-6.54-26.14-18s-10.47-28-10.47-47.67v-.27h-.59v.28c0,19.79,3.93,36.34,10.54,48S65.29,174.23,76,174.23a29.61,29.61,0,0,0,11.43-2.43l-.22-.54Z" transform="translate(0.8 0.79)"/><path class="cls-3" d="M87.05,171.46a14,14,0,0,1-.88,2.53c-.28.55-.54.71-.61.69l-.25-.17c-.5-.57-1.08-2.55-1.55-5.65-1.44-9.32-2.37-29-2.37-55.07,0-.69,0-1.38,0-2.08h-.59c0,.69,0,1.39,0,2.08,0,18.58.47,33.88,1.26,44.54a119.3,119.3,0,0,0,1.42,12.36,18.06,18.06,0,0,0,.87,3.29,3.64,3.64,0,0,0,.51.91,1,1,0,0,0,.7.38c.5,0,.82-.42,1.13-1a14.39,14.39,0,0,0,.93-2.65l-.57-.15Z" transform="translate(0.8 0.79)"/><path class="cls-3" d="M87.33,171.53l-.14.26a19.92,19.92,0,0,0,9.87,2.86c8.46,0,15.75-6.61,20.92-18s8.27-27.7,8.31-47.28H126l0,.29c15.52-2.08,27.78-5.28,36.19-9.09s13-8.24,13.05-12.94c0-3.77-3-7.48-9.1-11l-.44-.25v.5c-.08,46.28-35.24,88.52-78.44,94.32l-.86.12.76.43.14-.26,0,.29c43.53-5.86,78.85-48.33,78.94-94.9H166l-.14.26c6,3.43,8.81,7,8.8,10.44,0,4.27-4.35,8.63-12.7,12.41s-20.55,7-36,9l-.26,0v.25c0,19.51-3.12,35.73-8.25,47s-12.27,17.67-20.39,17.67a19.43,19.43,0,0,1-9.58-2.78l-.15.25,0,.29Z" transform="translate(0.8 0.79)"/><path class="cls-3" d="M106.83,171.39c7.83-1,14-2.67,18.3-4.6s6.65-4.18,6.67-6.67c0-2-1.57-3.89-4.67-5.65l-.29.51c3,1.73,4.38,3.51,4.37,5.14,0,2-2.12,4.24-6.32,6.13s-10.34,3.51-18.14,4.56l.08.58Z" transform="translate(0.8 0.79)"/><path class="cls-3" d="M120.7,149.09c13.39-1.8,24-4.56,31.26-7.86s11.26-7.12,11.28-11.21c0-3.28-2.6-6.49-7.88-9.49l-.29.51c5.22,3,7.59,6,7.58,9,0,3.66-3.73,7.42-10.94,10.68s-17.73,6-31.09,7.8l.08.59Z" transform="translate(0.8 0.79)"/><path class="cls-3" d="M87.28,171.82A63.67,63.67,0,0,0,99,172.93c34.89,0,61.57-29.94,61.64-71.88h-.59c-.09,41.7-26.53,71.28-61.05,71.29a63.34,63.34,0,0,1-11.64-1.1l-.11.58Z" transform="translate(0.8 0.79)"/><path class="cls-3" d="M87.32,171.83l2,0c47.4,0,85.58-36.51,85.67-82.44h-.59c-.09,45.59-38,81.85-85.08,81.85l-2,0v.59Z" transform="translate(0.8 0.79)"/><path class="cls-3" d="M87.33,171.53l0,.29c43.53-5.86,78.85-48.33,78.94-94.9v-.17l-.14-.08c-15.38-8.73-46.73-13.77-79.29-13.78a288.7,288.7,0,0,0-37.94,2.42l-.25,0V66c0,46.39,17.11,93.64,38.51,105.84l.08.05.1,0,0-.29.15-.25C66.45,159.37,49.25,112.19,49.27,66v-.34H49l0,.29a287.37,287.37,0,0,1,37.86-2.42c32.49,0,63.82,5.07,79,13.7l.14-.26h-.29c-.08,46.28-35.24,88.52-78.44,94.32l0,.29.15-.25Z" transform="translate(0.8 0.79)"/><path class="cls-3" d="M127.13,154.47c-7.81-4.43-23.64-7-40.08-7a145.62,145.62,0,0,0-19.17,1.22l.08.59a144.29,144.29,0,0,1,19.09-1.22c16.37,0,32.18,2.56,39.79,6.89l.29-.51Z" transform="translate(0.8 0.79)"/><path class="cls-3" d="M155.36,120.53c-13.29-7.54-40.36-11.9-68.47-11.9a248.63,248.63,0,0,0-32.77,2.09l.08.59a247.42,247.42,0,0,1,32.69-2.09c28,0,55.09,4.38,68.18,11.82l.29-.51Z" transform="translate(0.8 0.79)"/><path class="cls-3" d="M87.44,171.8c26.91-11.24,48.61-58,48.72-104.48h-.59c-.07,46.34-21.83,92.92-48.35,103.94l.23.54Z" transform="translate(0.8 0.79)"/><path class="cls-3" d="M87.62,171.61c3.54-13.46,6.46-61.9,6.55-108.35h-.59c-.08,46.4-3,94.9-6.53,108.2l.57.15Z" transform="translate(0.8 0.79)"/><path class="cls-3" d="M87.33,171.53l.15-.25C66.45,159.37,49.25,112.19,49.27,66v-.68l-.34,0c-15.51,2.09-27.78,5.28-36.19,9.1s-13,8.23-13,12.94c0,3.77,3,7.48,9.1,11L9,98.05h-.3v.18c0,21.44,7.49,40,19.83,53.22a66.22,66.22,0,0,0,49,21.06,73.23,73.23,0,0,0,9.93-.68l.87-.11-.76-.43-.15.25,0-.29a73.67,73.67,0,0,1-9.85.67C39,171.9,9.26,140.82,9.25,98.22v-.35l-.15-.08c-6-3.43-8.81-7-8.81-10.44,0-4.27,4.36-8.63,12.7-12.41s20.56-7,36-9l0-.29h-.29V66c0,46.39,17.11,93.64,38.51,105.84l.14-.26,0-.29Z" transform="translate(0.8 0.79)"/><path class="cls-3" d="M67.88,148.72c-7.84,1.06-14,2.67-18.31,4.6s-6.64,4.19-6.66,6.67c0,2,1.56,3.89,4.66,5.65l.29-.51c-3-1.72-4.38-3.5-4.37-5.14,0-2.05,2.13-4.23,6.33-6.13s10.34-3.5,18.14-4.55l-.08-.59Z" transform="translate(0.8 0.79)"/><path class="cls-3" d="M54.12,110.72c-13.4,1.8-24,4.56-31.26,7.86S11.6,125.7,11.57,129.79c0,3.28,2.61,6.49,7.88,9.49l.3-.51c-5.22-3-7.6-6.05-7.59-9,0-3.66,3.74-7.42,10.94-10.68s17.74-6,31.1-7.8l-.08-.59Z" transform="translate(0.8 0.79)"/><path class="cls-3" d="M87.39,171.24c-40-7.43-72.5-50.91-72.5-97.13v-.18l-.58,0v.2c0,46.48,32.6,90.19,73,97.71l.11-.58Z" transform="translate(0.8 0.79)"/><path class="cls-3" d="M87.34,171.24C39.37,170.18.53,131.9.53,85.71v-.14l-.59,0v.16c0,46.53,39.1,85.05,87.37,86.12l0-.59Z" transform="translate(0.8 0.79)"/><path class="cls-3" d="M9,98.05h.29c.08-46.26,35.23-88.5,78.43-94.3l0-.29-.14.25c21,11.91,38.22,59.09,38.2,105.3v.36h.3l0-.29a287.64,287.64,0,0,1-37.87,2.42c-32.48,0-63.81-5.07-79-13.7L9,98.05H9l-.15.25c15.37,8.73,46.72,13.77,79.28,13.78A287,287,0,0,0,126,109.65l.26,0V109c0-46.36-17.11-93.61-38.5-105.81l-.09-.05h-.1C44.07,9,8.75,51.5,8.66,98v.18l.15.08Z" transform="translate(0.8 0.79)"/><path class="cls-3" d="M19.61,54.45C32.9,62,60,66.35,88.09,66.35a248.85,248.85,0,0,0,32.77-2.09l-.08-.58a249.25,249.25,0,0,1-32.69,2.08C60,65.77,33,61.39,19.9,53.94l-.29.51Z" transform="translate(0.8 0.79)"/><path class="cls-3" d="M47.84,20.52c7.81,4.42,23.64,7,40.09,7a145.83,145.83,0,0,0,19.17-1.23l-.08-.58A144.51,144.51,0,0,1,87.93,26.9c-16.38,0-32.19-2.56-39.8-6.9l-.29.52Z" transform="translate(0.8 0.79)"/><path class="cls-3" d="M39.41,107.65c.07-46.32,21.83-92.9,48.35-103.92l-.23-.54c-26.91,11.24-48.61,58-48.71,104.46Z" transform="translate(0.8 0.79)"/><path class="cls-3" d="M81.4,111.71c.08-46.38,3-94.88,6.53-108.18l-.57-.15c-3.54,13.46-6.46,61.9-6.55,108.33Z" transform="translate(0.8 0.79)"/><path class="cls-3" d="M126,109.36h.29V109c0-46.36-17.11-93.61-38.5-105.81l-.15.26,0,.29a73.78,73.78,0,0,1,9.85-.67c38.47,0,68.19,31.08,68.19,73.67v.35l.15.08c6,3.43,8.81,7,8.8,10.44,0,4.27-4.35,8.63-12.7,12.41s-20.55,7-36,9l0,.29h0l0,.29c15.52-2.08,27.78-5.28,36.19-9.09s13-8.24,13.05-12.94c0-3.77-3-7.48-9.1-11l-.15.25h.29v-.17c0-21.43-7.49-40-19.83-53.2A66.22,66.22,0,0,0,97.53,2.49a75,75,0,0,0-9.93.67l-.86.12.76.43c21,11.91,38.22,59.09,38.2,105.3v.69l.33,0Z" transform="translate(0.8 0.79)"/><path class="cls-3" d="M120.86,64.26c13.39-1.8,24-4.56,31.25-7.85s11.27-7.12,11.29-11.22c0-3.27-2.6-6.49-7.88-9.49l-.29.51c5.21,3,7.59,6.06,7.58,9,0,3.66-3.74,7.42-10.94,10.68s-17.74,6-31.09,7.81l.08.58Z" transform="translate(0.8 0.79)"/><path class="cls-3" d="M107.1,26.26c7.83-1.05,14-2.66,18.3-4.6s6.65-4.18,6.67-6.66c0-2-1.57-3.89-4.67-5.66l-.29.52c3,1.72,4.38,3.5,4.37,5.14,0,2-2.12,4.23-6.32,6.13s-10.34,3.5-18.14,4.55l.08.58Z" transform="translate(0.8 0.79)"/><path class="cls-3" d="M160.67,101.05v-.19c0-46.46-32.61-90.17-73-97.69l-.11.58c40,7.43,72.5,50.91,72.49,97.11v.19Z" transform="translate(0.8 0.79)"/><path class="cls-3" d="M175,89.41v-.16c0-46.5-39.1-85-87.38-86.09v.59c48,1.06,86.8,39.34,86.8,85.5v.16Z" transform="translate(0.8 0.79)"/><path class="cls-3" d="M166,76.92h.29v-.17c0-21.43-7.48-40-19.83-53.2A66.22,66.22,0,0,0,97.53,2.49a75,75,0,0,0-9.93.67l0,.3.15-.26A20,20,0,0,0,77.91.34c-8.46,0-15.75,6.6-20.92,18S48.72,46,48.69,65.6v.34l.34,0a287.37,287.37,0,0,1,37.86-2.42c32.49,0,63.82,5.07,79,13.7l.43.25v-.51H166l.15-.25c-15.38-8.73-46.73-13.78-79.29-13.78a288.7,288.7,0,0,0-37.94,2.42l0,.3h.29c0-19.51,3.13-35.71,8.25-47S69.8.92,77.91.93A19.39,19.39,0,0,1,87.5,3.71l.08,0h.1a73.67,73.67,0,0,1,9.85-.67c38.47,0,68.19,31.08,68.2,73.67v.17H166l.15-.25Z" transform="translate(0.8 0.79)"/><path class="cls-3" d="M155.52,35.7c-13.29-7.54-40.36-11.89-68.47-11.9a248.63,248.63,0,0,0-32.77,2.09l.08.59a247.31,247.31,0,0,1,32.69-2.09c28,0,55.09,4.38,68.18,11.82l.29-.51Z" transform="translate(0.8 0.79)"/><path class="cls-3" d="M127.4,9.34c-7.81-4.42-23.64-7-40.08-7A145.61,145.61,0,0,0,68.15,3.6l.08.58A144.29,144.29,0,0,1,87.32,3c16.37,0,32.18,2.56,39.79,6.9l.29-.52Z" transform="translate(0.8 0.79)"/><path class="cls-3" d="M136.16,67.32v-.27c0-19.78-3.94-36.32-10.55-47.95S109.69.76,99,.76A29.78,29.78,0,0,0,87.53,3.18l.23.55A29,29,0,0,1,99,1.35c10.46,0,19.59,6.54,26.14,18s10.47,28,10.47,47.66v.27Z" transform="translate(0.8 0.79)"/><path class="cls-3" d="M94.17,63.26V61.18c0-18.57-.47-33.87-1.26-44.53A117.23,117.23,0,0,0,91.49,4.29,18.15,18.15,0,0,0,90.62,1,3.47,3.47,0,0,0,90.11.1a.92.92,0,0,0-.7-.38c-.5,0-.81.42-1.13,1a13.53,13.53,0,0,0-.92,2.65l.57.15A12.62,12.62,0,0,1,88.81,1c.27-.56.54-.72.6-.69l.25.17c.5.57,1.08,2.55,1.55,5.65,1.45,9.32,2.37,29,2.37,55.05v2.08Z" transform="translate(0.8 0.79)"/><path class="cls-3" d="M49,65.61h.29c0-19.51,3.13-35.71,8.26-47S69.8.92,77.91.93A19.39,19.39,0,0,1,87.5,3.71l.14-.25,0-.3C44.07,9,8.75,51.5,8.66,98H9l.14-.26c-6-3.43-8.81-7-8.81-10.44,0-4.27,4.36-8.63,12.7-12.41s20.56-7,36-9l.25,0v-.25H49l0-.3c-15.51,2.09-27.78,5.28-36.19,9.1s-13,8.23-13,12.94c0,3.77,3,7.48,9.1,11l.44.25v-.5c.08-46.26,35.23-88.5,78.43-94.3l.87-.12-.76-.43A20,20,0,0,0,77.91.34c-8.46,0-15.75,6.6-20.92,18S48.72,46,48.69,65.6H49l0-.3Z" transform="translate(0.8 0.79)"/><path class="cls-3" d="M54.28,25.89c-13.4,1.81-24,4.57-31.26,7.86S11.75,40.87,11.73,45c0,3.28,2.6,6.49,7.88,9.49l.29-.51c-5.21-3-7.59-6-7.58-9,0-3.65,3.74-7.42,10.94-10.68s17.74-6,31.1-7.8l-.08-.59Z" transform="translate(0.8 0.79)"/><path class="cls-3" d="M68.15,3.6c-7.84,1.05-14,2.67-18.31,4.6s-6.64,4.18-6.66,6.66c0,2,1.56,3.89,4.66,5.66l.29-.52c-3-1.72-4.38-3.5-4.37-5.14,0-2,2.13-4.23,6.33-6.13s10.34-3.5,18.14-4.55l-.08-.58Z" transform="translate(0.8 0.79)"/><path class="cls-3" d="M14.89,73.92C15,32.23,41.43,2.65,75.94,2.65a63.53,63.53,0,0,1,11.65,1.1l.11-.58A63.77,63.77,0,0,0,75.94,2.06C41.06,2.06,14.37,32,14.31,73.92h.58Z" transform="translate(0.8 0.79)"/><path class="cls-3" d="M.54,85.56C.62,40,38.52,3.73,85.61,3.73l2,0V3.16l-2,0C38.22,3.14,0,39.65,0,85.56Z" transform="translate(0.8 0.79)"/><path class="cls-3" d="M99.15,174.21l0-.29a87.47,87.47,0,0,1-11.67.79,88.35,88.35,0,0,1-17.57-1.8A84.2,84.2,0,0,1,56.43,169c-1.58-.59-3.66-1.46-5.18-2.18-2.06-1-4.77-2.36-6.76-3.46C23.27,151.28,9.25,127.47,9.25,98.22v-.17h0c.08-46.26,35.23-88.5,78.43-94.3l-.08-.59C44.07,9,8.75,51.5,8.66,98v.18c0,29.44,14.12,53.47,35.54,65.64l.3-.51c-1.5-.92-3.54-2.06-5-3-2.29-1.57-5.3-3.77-7.47-5.51A109.74,109.74,0,0,1,22.88,146a60.12,60.12,0,0,1-5.29-6.42c-4.23-6.09-5.79-8.34-7.63-12.2-1-2-2.31-4.78-3.18-6.87-.78-1.88-1.71-4.44-2.33-6.38A82.72,82.72,0,0,1,1.19,100a86.29,86.29,0,0,1-.9-12.11v-.58a119,119,0,0,1,1.16-14.1,86.93,86.93,0,0,1,6.2-20.86c4-8.18,3.94-8.14,6.72-12.41A85.68,85.68,0,0,1,23,28.87,88.13,88.13,0,0,1,44.75,11.49,102,102,0,0,1,54.4,6.81,89.39,89.39,0,0,1,67.2,2.7,84.77,84.77,0,0,1,87.36.3c1.64,0,3.17,0,4.58.1a86.71,86.71,0,0,1,31.79,7.79c2,1,4.77,2.35,6.76,3.46,1.54.85,3.58,2.06,5,3.07s3.47,2.37,4.87,3.47c1.94,1.51,4.47,3.6,6.27,5.26a87.56,87.56,0,0,1,17.51,22.48,116.94,116.94,0,0,1,5.5,12.3,88.12,88.12,0,0,1,4.7,21.65c.23,3,.34,4.5.34,6.39s-.11,4.07-.31,8.49a58.85,58.85,0,0,1-1.12,8.46,87.71,87.71,0,0,1-3.76,13.92,85.59,85.59,0,0,1-5.93,13c-2,3.4-5,7.77-7.3,11a74.53,74.53,0,0,1-4.85,5.7,88.59,88.59,0,0,1-15.1,13,87,87,0,0,1-37.21,14.21l0,.29,0,.3a87.73,87.73,0,0,0,37.46-14.31,88.84,88.84,0,0,0,15.2-13,75,75,0,0,0,4.9-5.75c2.33-3.21,5.32-7.58,7.32-11a84.91,84.91,0,0,0,6-13,86.15,86.15,0,0,0,3.78-14A58.54,58.54,0,0,0,175,94.79c.2-4.42.31-6.66.31-8.52s-.11-3.42-.34-6.44A88.58,88.58,0,0,0,170.2,58a118,118,0,0,0-5.53-12.38A88.1,88.1,0,0,0,147,23c-1.82-1.69-4.36-3.78-6.31-5.3-1.43-1.12-3.43-2.45-4.89-3.48s-3.51-2.24-5.07-3.11C128.77,10,126,8.66,124,7.66a91.17,91.17,0,0,0-8.92-3.52A88.52,88.52,0,0,0,92-.19c-1.42-.06-3-.1-4.61-.1A85.37,85.37,0,0,0,67.07,2.12,90.86,90.86,0,0,0,54.19,6.26,102.19,102.19,0,0,0,44.46,11a83,83,0,0,0-11.64,7.85,84.05,84.05,0,0,0-10.29,9.63,84.83,84.83,0,0,0-8.64,11.19c-2.78,4.27-2.8,4.31-6.76,12.48a86.71,86.71,0,0,0-6.25,21A119.79,119.79,0,0,0-.29,87.34v.59a86.18,86.18,0,0,0,.91,12.2,83.65,83.65,0,0,0,3.28,14.22c.63,2,1.56,4.53,2.35,6.43.88,2.11,2.21,4.85,3.19,6.9,1.86,3.89,3.45,6.19,7.68,12.27a59.4,59.4,0,0,0,5.35,6.5,111.27,111.27,0,0,0,9.23,8.8c2.19,1.75,5.2,3.95,7.51,5.54,1.46,1,3.51,2.15,5,3.06l.16-.25.14-.26C23.27,151.28,9.25,127.47,9.25,98.22v-.17c.08-46.26,35.23-88.5,78.43-94.3l-.08-.59C44.07,9,8.75,51.5,8.66,98h0v.18c0,29.44,14.12,53.47,35.54,65.64,2,1.1,4.72,2.5,6.79,3.47,1.55.73,3.64,1.6,5.24,2.2a84.11,84.11,0,0,0,13.53,3.95,87.9,87.9,0,0,0,29.43,1Z" transform="translate(0.8 0.79)"/></g></g></g></svg>