<svg xmlns="http://www.w3.org/2000/svg" viewBox="0 0 145.95 203.61"><defs><style>.cls-1{fill:#1d1d1b;}</style></defs><g id="Calque_2" data-name="Calque 2"><g id="Calque_1-2" data-name="Calque 1"><path class="cls-1" d="M0,11.14V92.77a11.15,11.15,0,0,0,11.14,11.1H134.85A11.11,11.11,0,0,0,146,92.77V11.14A11.15,11.15,0,0,0,134.85,0H11.14A11.18,11.18,0,0,0,0,11.14Zm103.91,8.12A32.7,32.7,0,1,1,73,62.6a32.69,32.69,0,1,1,0-21.3A32.71,32.71,0,0,1,103.91,19.26Z"/><path class="cls-1" d="M103.9,138.22A32.7,32.7,0,1,1,73,181.56a32.69,32.69,0,1,1,0-21.3A32.7,32.7,0,0,1,103.9,138.22Z"/></g></g></svg>