<svg xmlns="http://www.w3.org/2000/svg" viewBox="0 0 175 175"><defs><style>.cls-1{fill:#1d1d1b;}</style></defs><g id="Calque_2" data-name="Calque 2"><g id="Calque_1-2" data-name="Calque 1"><path class="cls-1" d="M130.56,36.06A51.36,51.36,0,0,0,87.48,60.42a51.29,51.29,0,0,0-43-24.36,43.74,43.74,0,0,1,86.12,0Z"/><path class="cls-1" d="M60.38,87.48a51.36,51.36,0,0,0-24.32,43.05,43.73,43.73,0,0,1,0-86.1A51.35,51.35,0,0,0,60.38,87.48Z"/><path class="cls-1" d="M83.27,68.8a51.39,51.39,0,0,0-3,11.46,51.39,51.39,0,0,0-11.46,3A43.7,43.7,0,0,1,43.74,43.74,43.63,43.63,0,0,1,83.27,68.8Z"/><path class="cls-1" d="M83.27,106.17a43.64,43.64,0,0,1-39.53,25A43.7,43.7,0,0,1,68.8,91.69a51.39,51.39,0,0,0,11.46,3A51.62,51.62,0,0,0,83.27,106.17Z"/><path class="cls-1" d="M130.56,138.9a43.73,43.73,0,0,1-86.12,0,51.29,51.29,0,0,0,43-24.36A51.36,51.36,0,0,0,130.56,138.9Z"/><path class="cls-1" d="M131.26,43.74a43.68,43.68,0,0,1-25.09,39.53,51.62,51.62,0,0,0-11.47-3,51.39,51.39,0,0,0-3-11.46A43.69,43.69,0,0,1,131.26,43.74Z"/><path class="cls-1" d="M131.26,131.22a43.7,43.7,0,0,1-39.57-25,51.62,51.62,0,0,0,3-11.47,51.62,51.62,0,0,0,11.47-3A43.68,43.68,0,0,1,131.26,131.22Z"/><path class="cls-1" d="M175,87.48a43.69,43.69,0,0,1-36.06,43.05,51.36,51.36,0,0,0-24.32-43,51.35,51.35,0,0,0,24.32-43.05A43.7,43.7,0,0,1,175,87.48Z"/></g></g></svg>