<svg xmlns="http://www.w3.org/2000/svg" viewBox="0 0 175 155"><defs><style>.cls-1{fill:#1d1d1b;}</style></defs><g id="Calque_2" data-name="Calque 2"><g id="Calque_1-2" data-name="Calque 1"><path class="cls-1" d="M56.81,0h61.38c16.95,0,30.73,13.15,30.73,29.38S135.14,58.8,118.19,58.8,87.5,45.61,87.5,29.38c0,16.23-13.73,29.42-30.69,29.42S26.08,45.61,26.08,29.38,39.82,0,56.81,0Z"/><path class="cls-1" d="M87.5,29.37c0,23.13,19.57,41.91,43.72,41.91S175,90,175,113.14,155.38,155,131.22,155,87.5,136.27,87.5,113.14C87.5,136.27,67.93,155,43.78,155S0,136.27,0,113.14,19.57,71.28,43.78,71.28,87.5,52.5,87.5,29.37Z"/></g></g></svg>