<svg xmlns="http://www.w3.org/2000/svg" viewBox="0 0 175 175"><defs><style>.cls-1{fill:#1d1d1b;}</style></defs><g id="Calque_2" data-name="Calque 2"><g id="Calque_1-2" data-name="Calque 1"><path class="cls-1" d="M131.22,0A43.73,43.73,0,0,0,87.5,43.78,43.74,43.74,0,0,0,43.72,0Z"/><path class="cls-1" d="M43.72,87.5A43.71,43.71,0,0,0,0,131.22V43.78A43.71,43.71,0,0,0,43.72,87.5Z"/><path class="cls-1" d="M131.22,87.5A43.71,43.71,0,0,0,87.5,131.22,43.73,43.73,0,0,0,43.72,87.5,43.73,43.73,0,0,0,87.5,43.78,43.71,43.71,0,0,0,131.22,87.5Z"/><path class="cls-1" d="M131.22,175H43.72A43.77,43.77,0,0,0,87.5,131.22,43.76,43.76,0,0,0,131.22,175Z"/><path class="cls-1" d="M175,43.78v87.44A43.76,43.76,0,0,0,131.22,87.5,43.76,43.76,0,0,0,175,43.78Z"/></g></g></svg>