<svg xmlns="http://www.w3.org/2000/svg" viewBox="0 0 446.81 110.65"><defs><style>.cls-1{fill:#1d1d1b;}</style></defs><g id="Calque_2" data-name="Calque 2"><g id="Calque_1-2" data-name="Calque 1"><path class="cls-1" d="M404,110.65V0c23.62,0,42.77,24.78,42.77,55.31S427.66,110.65,404,110.65Z"/><path class="cls-1" d="M367.92,110.65V0c20,0,36.17,24.78,36.17,55.31S387.89,110.65,367.92,110.65Z"/><path class="cls-1" d="M331.79,110.65V0c16.34,0,29.58,24.78,29.58,55.31S348.13,110.65,331.79,110.65Z"/><path class="cls-1" d="M295.66,110.65V0c12.7,0,23,24.78,23,55.31S308.36,110.65,295.66,110.65Z"/><path class="cls-1" d="M259.53,110.65V0c9.06,0,16.41,24.78,16.41,55.31S268.59,110.65,259.53,110.65Z"/><path class="cls-1" d="M223.4,110.65c-5.42,0-9.82-24.78-9.82-55.34S218,0,223.4,0s9.82,24.78,9.82,55.31S228.83,110.65,223.4,110.65Z"/><path class="cls-1" d="M42.76,110.65V0C19.15,0,0,24.78,0,55.31S19.15,110.65,42.76,110.65Z"/><path class="cls-1" d="M78.89,110.65V0c-20,0-36.17,24.78-36.17,55.31S58.91,110.65,78.89,110.65Z"/><path class="cls-1" d="M115,110.65V0C98.68,0,85.43,24.78,85.43,55.31S98.68,110.65,115,110.65Z"/><path class="cls-1" d="M151.15,110.65V0c-12.7,0-23,24.78-23,55.31S138.45,110.65,151.15,110.65Z"/><path class="cls-1" d="M187.27,110.65V0c-9.06,0-16.4,24.78-16.4,55.31S178.21,110.65,187.27,110.65Z"/></g></g></svg>