<svg xmlns="http://www.w3.org/2000/svg" viewBox="0 0 167.18 175"><defs><style>.cls-1{fill:#1d1d1b;}</style></defs><g id="Calque_2" data-name="Calque 2"><g id="Calque_1-2" data-name="Calque 1"><path class="cls-1" d="M68,175V115.15a.37.37,0,0,0-.55-.31l-27.6,15.92L15.91,144.61a.32.32,0,0,1-.45-.12L0,117.75a0,0,0,0,1,0,0l24.2-14,27.6-15.92a.37.37,0,0,0,0-.64L24.21,71.26.3,57.42a.37.37,0,0,1-.13-.5l15.45-26.7,24.22,14,27.6,15.92a.37.37,0,0,0,.55-.31V0l0,0H99a.18.18,0,0,1,.18.18V59.82a.37.37,0,0,0,.55.31l27.6-15.92,24.22-14,15.62,27a0,0,0,0,1,0,0l-24.23,14-27.6,15.92a.37.37,0,0,0,0,.64l27.6,15.92,24.23,14a0,0,0,0,1,0,0l-15.63,27-24.21-14-27.6-15.92a.37.37,0,0,0-.55.31V175a0,0,0,0,1,0,0H68Z"/></g></g></svg>