<svg xmlns="http://www.w3.org/2000/svg" viewBox="0 0 175 175"><defs><style>.cls-1{fill:#1d1d1b;}</style></defs><g id="Calque_2" data-name="Calque 2"><g id="Calque_1-2" data-name="Calque 1"><circle class="cls-1" cx="87.5" cy="81.92" r="1.23"/><circle class="cls-1" cx="84.71" cy="82.67" r="1.23"/><circle class="cls-1" cx="82.67" cy="84.71" r="1.23"/><circle class="cls-1" cx="81.92" cy="87.5" r="1.23"/><circle class="cls-1" cx="82.67" cy="90.29" r="1.23"/><circle class="cls-1" cx="84.71" cy="92.33" r="1.23"/><circle class="cls-1" cx="87.5" cy="93.08" r="1.23"/><circle class="cls-1" cx="90.29" cy="92.33" r="1.23"/><circle class="cls-1" cx="92.33" cy="90.29" r="1.23"/><circle class="cls-1" cx="93.08" cy="87.5" r="1.23"/><circle class="cls-1" cx="92.33" cy="84.71" r="1.23"/><circle class="cls-1" cx="90.29" cy="82.67" r="1.23"/><circle class="cls-1" cx="87.5" cy="76.94" r="2.33"/><circle class="cls-1" cx="82.22" cy="78.35" r="2.33"/><circle class="cls-1" cx="78.35" cy="82.22" r="2.33"/><circle class="cls-1" cx="76.94" cy="87.5" r="2.33"/><circle class="cls-1" cx="78.35" cy="92.78" r="2.33"/><circle class="cls-1" cx="82.22" cy="96.65" r="2.33"/><circle class="cls-1" cx="87.5" cy="98.06" r="2.33"/><circle class="cls-1" cx="92.78" cy="96.65" r="2.33"/><circle class="cls-1" cx="96.65" cy="92.78" r="2.33"/><circle class="cls-1" cx="98.06" cy="87.5" r="2.33"/><circle class="cls-1" cx="96.65" cy="82.22" r="2.33"/><circle class="cls-1" cx="92.78" cy="78.35" r="2.33"/><circle class="cls-1" cx="87.5" cy="67.51" r="4.42"/><circle class="cls-1" cx="77.5" cy="70.18" r="4.42"/><circle class="cls-1" cx="70.18" cy="77.5" r="4.42"/><circle class="cls-1" cx="67.51" cy="87.5" r="4.42"/><circle class="cls-1" cx="70.18" cy="97.5" r="4.42"/><circle class="cls-1" cx="77.5" cy="104.82" r="4.42"/><circle class="cls-1" cx="87.5" cy="107.49" r="4.42"/><circle class="cls-1" cx="97.5" cy="104.82" r="4.42"/><circle class="cls-1" cx="104.82" cy="97.5" r="4.42"/><circle class="cls-1" cx="107.49" cy="87.5" r="4.42"/><circle class="cls-1" cx="104.82" cy="77.5" r="4.42"/><circle class="cls-1" cx="97.5" cy="70.18" r="4.42"/><circle class="cls-1" cx="87.5" cy="49.65" r="8.36"/><circle class="cls-1" cx="68.57" cy="54.72" r="8.36"/><circle class="cls-1" cx="54.72" cy="68.57" r="8.36"/><circle class="cls-1" cx="49.65" cy="87.5" r="8.36"/><circle class="cls-1" cx="54.72" cy="106.43" r="8.36"/><circle class="cls-1" cx="68.57" cy="120.28" r="8.36"/><circle class="cls-1" cx="87.5" cy="125.35" r="8.36"/><circle class="cls-1" cx="106.43" cy="120.28" r="8.36"/><circle class="cls-1" cx="120.28" cy="106.43" r="8.36"/><circle class="cls-1" cx="125.35" cy="87.5" r="8.36"/><circle class="cls-1" cx="120.28" cy="68.57" r="8.36"/><circle class="cls-1" cx="106.43" cy="54.72" r="8.36"/><circle class="cls-1" cx="87.5" cy="15.83" r="15.83"/><circle class="cls-1" cx="51.67" cy="25.44" r="15.83"/><circle class="cls-1" cx="25.44" cy="51.67" r="15.83"/><circle class="cls-1" cx="15.83" cy="87.5" r="15.83"/><circle class="cls-1" cx="25.44" cy="123.33" r="15.83"/><circle class="cls-1" cx="51.67" cy="149.56" r="15.83"/><circle class="cls-1" cx="87.5" cy="159.17" r="15.83"/><circle class="cls-1" cx="123.33" cy="149.56" r="15.83"/><circle class="cls-1" cx="149.56" cy="123.33" r="15.83"/><circle class="cls-1" cx="159.17" cy="87.5" r="15.83"/><circle class="cls-1" cx="149.56" cy="51.67" r="15.83"/><circle class="cls-1" cx="123.33" cy="25.44" r="15.83"/></g></g></svg>