<svg xmlns="http://www.w3.org/2000/svg" viewBox="0 0 175 175"><defs><style>.cls-1{fill:#1d1d1b;}</style></defs><g id="Calque_2" data-name="Calque 2"><g id="Calque_1-2" data-name="Calque 1"><path class="cls-1" d="M175,58.4V29.2H145.83V0h-29.2A29.22,29.22,0,0,0,87.5,27.47,29.17,29.17,0,0,0,58.4,0H29.2V29.2H0V58.4A29.19,29.19,0,0,0,27.31,87.5,29.19,29.19,0,0,0,0,116.6v29.2H29.2V175H58.4a29.17,29.17,0,0,0,29.1-27.47A29.22,29.22,0,0,0,116.63,175h29.2V145.8H175V116.6a29.19,29.19,0,0,0-27.31-29.1A29.19,29.19,0,0,0,175,58.4ZM145.8,87.56a29.18,29.18,0,0,1-29.13,29.11,29.19,29.19,0,0,1-29.14,29.1v0h-.06v0a29.19,29.19,0,0,1-29.14-29.1,29.18,29.18,0,0,1-29.1-29.14h0v-.09h0a29.2,29.2,0,0,1,29.1-29.11A29.19,29.19,0,0,1,87.5,29.23v0h.06v0a29.2,29.2,0,0,1,29.11,29.1A29.21,29.21,0,0,1,145.8,87.47h0v.09Z"/></g></g></svg>