<svg xmlns="http://www.w3.org/2000/svg" viewBox="0 0 176 176"><defs><style>.cls-1{fill:none;stroke:#000;stroke-linecap:round;stroke-miterlimit:10;}</style></defs><g id="Calque_2" data-name="Calque 2"><g id="Calque_1-2" data-name="Calque 1"><path class="cls-1" d="M88,175.5A87.5,87.5,0,0,1,88,.5"/><path class="cls-1" d="M88,175.5c-29,0-52.5-39.18-52.5-87.5S59,.5,88,.5"/><path class="cls-1" d="M88,175.5c-9.66,0-17.5-39.18-17.5-87.5S78.34.5,88,.5"/><path class="cls-1" d="M88,175.5c9.66,0,17.5-39.18,17.5-87.5S97.66.5,88,.5"/><path class="cls-1" d="M88,175.5c29,0,52.5-39.18,52.5-87.5S117,.5,88,.5"/><path class="cls-1" d="M88,175.5A87.5,87.5,0,0,0,88,.5"/><path class="cls-1" d="M24.17,28.16h0a164.77,164.77,0,0,1,31-8.47h0A193.19,193.19,0,0,1,77.79,17c6-.42,12-.6,17.89-.6.8,0,1.57,0,2.38,0,6.89,0,13.89.31,21,1a183.44,183.44,0,0,1,25.73,4"/><path class="cls-1" d="M6.39,56.51a237,237,0,0,1,34.79-8,313.28,313.28,0,0,1,31.54-3.22c7.73-.42,15.4-.6,23-.6,2.48,0,5,0,7.52.07,10.22.14,20.58.67,31,1.72a263,263,0,0,1,33.43,5.39h0"/><path class="cls-1" d="M1.18,77.4c11.58-1.33,23.27-2.31,35-3s23.14-1.09,34.62-1.33c8.36-.14,16.69-.21,24.92-.21,3.15,0,6.33,0,9.55,0,11.38.07,23,.28,34.58.77s23.24,1.12,34.83,2.14"/><path class="cls-1" d="M.93,96.58c11.62,1.33,23.31,2.28,35,3s23.24,1.12,34.75,1.33q12.6.26,25,.24c3.18,0,6.4,0,9.62-.07,11.41,0,23-.28,34.69-.77s23.31-1.12,34.93-2.17"/><path class="cls-1" d="M5.55,117.23a236.61,236.61,0,0,0,35,8.23,304.93,304.93,0,0,0,32,3.32c7.8.42,15.54.6,23.17.6,2.59,0,5.18,0,7.77-.07,10.32-.18,20.82-.7,31.39-1.79A258.63,258.63,0,0,0,168.65,122"/><path class="cls-1" d="M21.48,144.81h0A167.64,167.64,0,0,0,53.57,154a207.26,207.26,0,0,0,23.7,3c6.19.42,12.32.59,18.41.59,1,0,2,0,2.94,0,7.28,0,14.63-.39,22-1.12h0a193.81,193.81,0,0,0,27-4.55"/></g></g></svg>