<svg xmlns="http://www.w3.org/2000/svg" viewBox="0 0 175 175"><defs><style>.cls-1{fill:#1d1d1b;}</style></defs><g id="Calque_2" data-name="Calque 2"><g id="Calque_1-2" data-name="Calque 1"><path class="cls-1" d="M3.08,152.58c-5.63-24.83-2.81-52.42,14.07-74.5C36.85,50.49,67.8,53.25,98.76,47.73c5.62,0,5.62-13.79,0-22.07C81.87.83,50.92-4.69,22.78,3.59c39.39-11,81.6,11,98.49,46.9,5.62,13.8,2.81,30.35,2.81,44.15,0,8.28,11.26,11,16.88,8.28,31-13.8,39.4-49.67,31-80,5.63,24.83,2.81,52.43-14.07,74.5C138.15,125,107.2,127.75,76.24,125c-14.07,13.8,5.63,33.11,19.7,41.39a78.75,78.75,0,0,0,56.28,5.52c-30.95,8.27-64.72,0-87.23-24.84-16.88-19.31-14.07-44.14-14.07-66.22,0-8.27-11.26-11-16.88-8.27-31,13.79-39.4,49.66-31,80Z"/></g></g></svg>