<svg xmlns="http://www.w3.org/2000/svg" viewBox="0 0 175 163"><defs><style>.cls-1{fill:#1d1d1b;}</style></defs><g id="Calque_2" data-name="Calque 2"><g id="Calque_1-2" data-name="Calque 1"><path class="cls-1" d="M159.2,97.82H141.88c-12.16,0-19.76,13.78-13.68,24.81l2.56,4.65,6.1,11c4.3,7.78,2,17.89-5.45,22.41l-.29.17c-7.45,4.49-17,1.56-21.3-6.23l-6.08-11L101.19,139a15.46,15.46,0,0,0-27.38,0l-2.55,4.63-6.11,11c-4.3,7.78-13.84,10.7-21.29,6.22l-.29-.18c-7.42-4.51-9.75-14.62-5.45-22.39l6.09-11,2.56-4.65c6.08-11-1.52-24.81-13.68-24.81H15.8A16,16,0,0,1,0,81.66v-.33A16.06,16.06,0,0,1,15.8,65.17H33.09c12.16,0,19.76-13.78,13.68-24.8l-2.56-4.65-6.09-11c-4.3-7.77-2-17.88,5.45-22.39l.28-.17c7.45-4.49,17-1.57,21.3,6.21l6.11,11.06L73.81,24a15.46,15.46,0,0,0,27.38,0l2.55-4.63,6.09-11c4.29-7.79,13.84-10.72,21.29-6.23l.29.17c7.42,4.51,9.75,14.63,5.45,22.41l-6.1,11-2.56,4.65c-6.08,11,1.52,24.8,13.68,24.8H159.2A16,16,0,0,1,175,81.33v.34A16,16,0,0,1,159.2,97.82Z"/></g></g></svg>